<?xml version="1.0" standalone="no"?>
<!DOCTYPE svg PUBLIC "-//W3C//DTD SVG 1.1//EN" "http://www.w3.org/Graphics/SVG/1.1/DTD/svg11.dtd" >
<svg xmlns="http://www.w3.org/2000/svg" xmlns:xlink="http://www.w3.org/1999/xlink" version="1.1">
<metadata>
Created by FontForge 20170924 at Fri Mar 13 01:11:35 2020
 By www-data
Copyright (c) 2020 by ardyanatypes. All rights reserved.
</metadata>
<defs>
<font id="BanaChips-Free" horiz-adv-x="453" >
  <font-face 
    font-family="Bana Chips"
    font-weight="400"
    font-stretch="normal"
    units-per-em="1000"
    panose-1="0 0 0 0 0 0 0 0 0 0"
    ascent="750"
    descent="-250"
    x-height="457"
    cap-height="661"
    bbox="-225.364 -270 780.636 756.88"
    underline-thickness="50"
    underline-position="-125"
    unicode-range="U+000D-20AC"
  />
<missing-glyph horiz-adv-x="500" 
 />
    <glyph glyph-name=".notdef" horiz-adv-x="500" 
 />
    <glyph glyph-name=".null" horiz-adv-x="0" 
 />
    <glyph glyph-name=".null" horiz-adv-x="0" 
 />
    <glyph glyph-name="uni000D" unicode="&#xd;" horiz-adv-x="250" 
 />
    <glyph glyph-name="space" unicode=" " horiz-adv-x="250" 
 />
    <glyph glyph-name="A" unicode="A" horiz-adv-x="431" 
d="M-10 224q1 6 2.5 11.5t-0.5 11.5t2.5 9t9.5 5q10 3 20 4t20 1q12 2 24 0q7 0 10 8q8 48 17 93.5t17 92.5q3 18 5.5 36t4.5 35q2 16 0 31.5t-6 30.5q-6 25 10 44.5t37 21.5q23 2 45.5 4.5t45.5 2.5q6 0 12.5 0.5t12.5 0.5q27 0 37 -24q8 -18 11 -36.5t6 -37.5
q7 -61 10 -122t8 -122q1 -11 2 -21t1 -21q1 -4 2 -6t6 -2q17 1 29 -6.5t24 -16.5q4 -4 3.5 -8.5t-2.5 -8.5q-5 -16 -4 -30q1 -11 -5 -14.5t-17 1.5q-1 1 -2 1l-9 4.5t-10 -0.5q-3 -3 -1 -7.5t3 -8.5q13 -70 41 -139q2 -4 3.5 -8.5t3.5 -9.5q6 -18 -13 -21q-14 -2 -27 -4.5
t-27 -3.5q-20 -1 -39.5 -3.5t-39.5 -2.5h-6.5t-5.5 1q-11 4 -13.5 10.5t5.5 14.5q17 17 22 38.5t8 44.5q2 20 1.5 39.5t-1.5 39.5q0 14 -14 17q-22 5 -43 2q-14 -2 -28 -3t-28 -3q-11 -3 -12 -13q0 -11 -1 -21.5t-1 -21.5q3 -29 4 -57.5t14 -55.5q4 -8 0.5 -15t-11.5 -6
q-27 1 -53 -3t-52 -10q-2 0 -4 -0.5t-4 -0.5q-36 -2 -24 32q11 24 14 47q4 30 8.5 61.5t12.5 60.5q3 10 -7 10q-11 0 -20.5 1.5t-19.5 -0.5q-30 -1 -24 26zM182 261h14q16 0 31.5 1.5t31.5 3.5q4 0 6.5 1.5t1.5 8.5q-8 33 -14 66t-10 68q-2 23 -4 45t-5 45q-1 11 -10 19
q-9 9 -12 -2q-9 -32 -17 -72.5t-9 -72.5q-3 -52 -12 -103q-2 -9 8 -8z" />
    <glyph glyph-name="B" unicode="B" horiz-adv-x="431" 
d="M15 652q9 8 25.5 13.5t35 8.5t36.5 4t30 2q14 1 28 2.5t28 2.5q32 2 62 -3t58 -22q29 -17 45 -43.5t21 -59.5q8 -53 -18.5 -98.5t-74.5 -69.5l-18 -10t-19 -10q23 -6 46.5 -19t45 -30t38.5 -37.5t26 -43.5q14 -38 9.5 -73t-26.5 -67q-64 -94 -176 -103q-21 -2 -41.5 -1
t-41.5 4q-23 3 -46 0q-10 -2 -20.5 -2.5t-21.5 1.5q-26 3 -18 28q14 41 17.5 82.5t4.5 84.5t1.5 86t-3.5 86q-5 54 -8.5 106.5t-7.5 105.5q0 5 -1 13.5t-3 17t-5 15.5t-8 10q-12 9 0 19zM143 283v-57q2 -18 3 -38l2 -40q1 -16 1 -31.5t8 -30.5q1 -2 1.5 -4.5t4.5 -2.5
q15 -2 29.5 -2.5t28.5 2.5q23 5 40 16t25 36q3 10 6 19.5t5 18.5q12 71 -51 106q-23 12 -47 13.5t-49 3.5q-7 0 -7 -9zM154 396q27 9 49.5 24t38.5 40q13 20 23 40t10 45q-1 4 -1 7.5t-1 6.5q-8 29 -26.5 48.5t-47.5 19.5q-14 0 -26 -4q-9 -4 -11 -7t-1 -12q1 -7 1 -13.5
v-12.5l-4 -50l-4 -50q-2 -19 -3 -38t-4 -38q-1 -8 7 -6z" />
    <glyph glyph-name="C" unicode="C" 
d="M10 257q1 23 5 55.5t10.5 66.5t15.5 65t19 51q14 30 33.5 60t45.5 54t57 39.5t67 15.5q57 0 101.5 -33t64.5 -87q11 -26 6 -49q-2 -10 -9 -16t-17 -4q-11 2 -21 0t-21 -6q-24 -6 -47 3q-26 10 -14 35q5 9 9 18t5 19q1 14 -0.5 26t-8.5 25q-6 11 -17 16.5t-24 4.5
q-22 -1 -38.5 -13.5t-28 -30.5t-18.5 -39.5t-10 -39.5q-10 -52 -15 -103t-1 -104l4 -66t13 -65q6 -18 14 -34t19 -28t27 -19t38 -7q17 -2 28 12q18 23 23.5 48t2.5 52q0 7 -4 12l-8 10q-14 15 5 25q8 4 15.5 3.5t15.5 -2.5q14 -3 26.5 -2t25.5 3q24 5 33.5 -6t1.5 -34
q-2 -7 -7.5 -12t-8.5 -13q-22 -54 -52.5 -89.5t-87.5 -58.5q-31 -11 -57 -11t-51 8.5t-48 23.5q-90 57 -111 164q-4 14 -5 28.5t-1 28.5z" />
    <glyph glyph-name="D" unicode="D" horiz-adv-x="477" 
d="M13 39q5 13 8 25t5 25q4 29 5.5 58.5t2.5 59.5q1 45 4 87.5t2 80.5q0 47 -0.5 87.5t-5.5 80.5q-2 19 -6 38t-10 37q-5 14 9 12q5 0 7 1q21 11 47 20t54 16t55.5 11t51.5 4q35 2 67 -5t63 -25q32 -19 50.5 -47t28.5 -62q12 -42 14.5 -83.5t0.5 -84.5q-3 -59 -17.5 -114
t-35.5 -109q-52 -131 -190 -161q-20 -4 -42 2q-16 4 -34 3q-5 0 -9.5 1.5t-9.5 2.5q-16 3 -31 2t-30 -3h-17t-16 2q-34 6 -21 38zM150 581q17 -1 22.5 -13t5.5 -26q0 -32 -2.5 -63t-10.5 -62q-10 -42 -14.5 -83.5t-0.5 -84.5q2 -32 2 -62.5t-2 -62.5v-25.5t-1 -25.5
q0 -9 10 -8q34 9 63 24.5t51 44.5q34 42 52 89.5t27 99.5q6 35 4.5 70.5t-6.5 70.5q-7 45 -28.5 82t-62.5 60q-7 4 -13 6.5t-14 3.5q-61 6 -109 -32q8 -1 14.5 -1t12.5 -2z" />
    <glyph glyph-name="E" unicode="E" horiz-adv-x="399" 
d="M11 47q3 17 7.5 34t6.5 34q3 23 4.5 44.5t3.5 43.5q5 63 7 125t0 125q0 38 -1 74.5t-2 74.5v4q-1 5 -3 10t2 10q20 23 38 29t49 7q25 2 51 1t56 -2q21 -1 45.5 -0.5t50.5 0.5q3 -1 8 -1q23 -4 32.5 -14.5t11.5 -34.5q2 -22 1.5 -44t-2.5 -45q-1 -9 -11 -17t-20 -6
q-6 1 -11.5 2t-10.5 3q-3 1 -2.5 2.5t-0.5 3.5q-2 25 -14 40.5t-37 17.5q-14 2 -28 3t-28 1q-17 0 -33 -0.5t-33 0.5q-8 0 -9 -8q-2 -13 -1 -25t4 -25q9 -41 8 -79q-1 -15 -0.5 -30.5t1.5 -29.5q1 -11 4.5 -15t14.5 -6q43 -6 83 16q17 9 32.5 20t31.5 21q4 2 7.5 4.5
t8.5 0.5t6 -7t1 -10q2 -19 -2.5 -36.5t-8.5 -35.5q-8 -36 -5 -70q0 -4 -0.5 -10t-2 -12t-5 -10t-9.5 -4q-5 0 -9 10q-3 3 -5.5 7t-5.5 8q-8 10 -18.5 16.5t-24.5 7.5q-20 2 -40.5 0t-39.5 -13q-7 -4 -10 -13q-9 -27 -9 -54.5t2 -54.5q2 -29 14 -39t42 -7q21 2 41.5 7t40.5 7
q1 1 3 1q22 -1 39.5 7.5t33.5 22.5q15 13 22 -6q8 -19 6 -42q-2 -16 -4 -31.5t-7 -31.5q-6 -24 -30 -27q-39 -5 -78 -3q-26 2 -50.5 2.5t-50.5 -1.5q-20 -2 -40 -2t-40 4q-12 2 -24.5 4t-24.5 4q-35 7 -29 43z" />
    <glyph glyph-name="F" unicode="F" horiz-adv-x="321" 
d="M11 45q3 14 7 28t6 28q4 25 6 50t4 51l6 114t2 114q-1 43 -2 85.5t-2 85.5v4q0 5 -2.5 10.5t1.5 10.5q19 23 37 28.5t47 7.5q52 3 103.5 1t103.5 -3q20 0 34.5 -10.5t16.5 -31.5q2 -24 1.5 -48.5t-2.5 -48.5q-1 -9 -11.5 -16.5t-20.5 -5.5q-5 1 -10 2.5t-10 2.5
q-3 1 -3 3t-1 4q-3 50 -51 57q-31 5 -62 3.5t-62 -0.5q-5 1 -5.5 -1t-0.5 -5q-2 -14 -1 -26t3 -25q5 -19 7 -37t1 -38q-1 -17 -0.5 -32.5t2.5 -32.5q0 -10 3.5 -14t14.5 -6q23 -3 43 1.5t40 15.5q35 19 65 41q3 2 6.5 4t8.5 0t6 -6t1 -9q2 -20 -2 -38t-9 -37
q-4 -17 -6 -33.5t0 -33.5q2 -16 -2 -26q-4 -11 -13 -12q-4 -1 -5.5 2.5t-4.5 7.5t-5.5 8t-5.5 7q-9 9 -19 16.5t-24 7.5q-18 1 -35.5 0t-35.5 -9q-19 -9 -23 -28q-6 -28 -6 -59q2 -16 2.5 -32t-1.5 -32q-4 -41 11 -83q2 -6 3 -12t3 -13q2 -8 -7 -9q-24 -4 -47.5 0.5
t-46.5 6.5q-7 1 -13.5 2t-12.5 3q-14 4 -20.5 15t-4.5 25z" />
    <glyph glyph-name="G" unicode="G" horiz-adv-x="443" 
d="M18 363q7 38 14.5 69.5t18.5 60t29 55.5t46 57q46 49 111 58q32 5 60 -4q45 -14 77 -41.5t47 -73.5q4 -11 6.5 -22.5t-0.5 -23.5q-6 -24 -30 -23q-11 2 -19.5 0.5t-18.5 -5.5q-23 -8 -43 -1q-14 5 -21.5 14.5t3.5 26.5q15 25 12 57q-2 22 -12.5 35t-27.5 14
q-23 1 -45 -13q-19 -12 -30.5 -30t-17.5 -39q-16 -55 -22 -109.5t-7 -101.5q2 -37 3.5 -65.5t4.5 -54.5q2 -21 8 -43t17 -41.5t27.5 -33.5t40.5 -17q15 -2 31 8t23 27q8 20 7 40t-8 40q-5 14 -16.5 20.5t-25.5 8.5q-23 2 -30.5 9.5t-14.5 30.5q-2 5 -2 10.5t-2 10.5
q-3 10 0.5 13.5t13.5 5.5q12 2 24.5 3t25.5 1q16 1 30.5 3t30.5 4q14 2 29.5 2t29.5 -5q36 -9 38 -46q0 -16 -2 -30.5t-8 -30.5q-6 -13 -9.5 -27t-10.5 -27q-5 -9 -10 -18.5t-11 -18.5q-25 -44 -63 -66.5t-86 -29.5q-36 -5 -70 6t-63 34q-29 22 -44 51.5t-26 61.5
q-17 51 -19.5 101.5t7.5 102.5z" />
    <glyph glyph-name="H" unicode="H" horiz-adv-x="464" 
d="M14 47l10 48t7 49q3 45 6 88.5t5 88.5q4 70 1 139.5t-3 138.5q-1 10 -5 17.5t-9 13.5q-5 5 -9 10t1 13q5 7 11.5 6t13.5 -3q8 -3 16.5 -3.5t16.5 -0.5q12 0 24.5 1t25.5 3q7 0 13.5 0.5t14.5 -0.5q6 0 11.5 -3t7.5 -9q4 -11 -5 -20q-19 -19 -24.5 -41t-3.5 -46
q2 -40 4.5 -79t4.5 -78q0 -24 24 -26q34 -2 67 -1t66 3q17 0 20 19q5 29 8 57t-2 56q-2 14 0.5 28.5t1.5 28.5q0 8 -1 18t-3.5 20.5t-6 19.5t-9.5 15t-5.5 11t3.5 10q4 6 7.5 9t11.5 1q23 -5 46.5 -4.5t46.5 2.5q8 1 15 -0.5t13 -7.5q4 -4 1 -7q-9 -9 -11.5 -20.5
t-2.5 -23.5q-1 -34 -3 -68.5t0 -68.5q2 -22 0 -44l-4 -44q-3 -43 -3 -86.5t1 -86.5q2 -67 3 -132v-9q0 -5 2.5 -10.5t-0.5 -9.5q-6 -8 -12.5 -15t-15.5 -11q-16 -7 -32 -9.5t-32 -1.5q-14 2 -27 8.5t-13 22.5q3 15 13 32q5 8 5 22q-1 14 -0.5 28.5t1.5 28.5q2 24 0 47t-5 46
q-3 25 -26 32q-17 7 -34.5 8t-34.5 1q-22 -3 -45 0q-12 2 -20 -4.5t-8 -18.5q-2 -28 -6 -55.5t-2 -54.5q2 -28 5 -54.5t17 -51.5q9 -14 -0.5 -25.5t-26.5 -11.5q-9 0 -21.5 1t-25.5 3t-25.5 4t-20.5 4q-38 9 -29 43z" />
    <glyph glyph-name="J" unicode="J" horiz-adv-x="382" 
d="M13 195q3 18 21 11q13 -5 31 -5q11 0 22.5 2t22.5 4q8 2 11 0t5 -10q2 -12 4.5 -24t5.5 -24q1 -5 4 -9q6 -10 13.5 -18.5t21.5 -7.5q28 2 40 27q7 11 9 24t4 25q5 36 4.5 71.5t-0.5 75.5q-1 38 -1.5 78t-5.5 82q-4 28 -7.5 56t-11.5 54q-6 18 -19 33l-2 2q-2 5 -5.5 9
t0.5 10t9 5t10 -3q48 -7 99 -1q14 2 27.5 4t27.5 2q2 -1 4 0l4 2q5 2 9 -2q3 -3 1 -9q-13 -38 -22 -76t-11 -78q-1 -23 1 -47t4 -47q3 -45 4 -88t3 -88q1 -25 0 -50t-7 -50q-4 -15 -10 -29t-14 -28q-4 -9 -11 -14.5t-15 -11.5q-32 -26 -63.5 -39t-72.5 -13q-38 0 -69.5 16
t-53.5 51q-18 29 -22 61.5t1 66.5z" />
    <glyph glyph-name="K" unicode="K" horiz-adv-x="493" 
d="M12 646q2 2 2.5 3.5t2.5 3.5q3 11 17 9q11 -2 22 -3t22 -3q26 -4 50.5 -1.5t48.5 7.5q10 2 17 2q8 0 9 -5t-2 -10q-13 -20 -23.5 -40t-10.5 -46q1 -42 0.5 -82t4.5 -81v-4.5t2 -5.5q10 8 19.5 16t15.5 18q25 41 45.5 82.5t28.5 88.5q2 14 2 27.5t-5 27.5q-6 16 11 16
q10 -1 23 -5q22 -4 43.5 0t43.5 7q5 1 10 1.5t10 2.5q10 0 12 -5q2 -6 -2 -13q-4 -5 -7 -13q-14 -35 -31 -75.5t-38 -81t-45.5 -76.5t-53.5 -62q41 -15 72 -39.5t53.5 -56.5t37.5 -70t24 -79q5 -21 12.5 -35.5t27.5 -25.5q4 -2 7.5 -3.5t7.5 -3.5t7.5 -5t3.5 -8t-4.5 -7
t-7.5 -5q-2 -2 -5 -2t-5 3q-2 5 -7 5.5t-10 0.5q-33 2 -66 3t-65 -6h-1q-21 -2 -26 2.5t-3 25.5q4 33 4.5 65.5t-8.5 64.5q-6 24 -15.5 46t-24 39.5t-33.5 30t-45 16.5q-5 0 -7.5 -1.5t-2.5 -8.5q2 -58 7.5 -115t16.5 -114l9 -24q2 -4 3 -7t2 -7q6 -27 -23 -24l-36 4t-37 2
q-12 0 -24.5 -1t-24.5 -4q-6 -1 -13 -0.5t-12 2.5q-17 8 -9 23q18 33 18 71q2 84 2.5 166.5t-1.5 167.5q-2 38 -3 76.5t-5 76.5q-1 14 -6 28q-4 8 -9 13t-13 6q-16 2 -7 14z" />
    <glyph glyph-name="L" unicode="L" horiz-adv-x="415" 
d="M12 646q2 2 2.5 3.5t2.5 3.5q3 10 16 10q12 -2 23 -3.5t22 -3.5q25 -4 49.5 -1t48.5 7q5 1 9.5 1.5t9.5 0.5q6 -1 8 -5t-1 -8q-37 -46 -36 -111q1 -42 3 -83.5t4 -83.5q2 -29 3 -58.5t3 -58.5q2 -36 4.5 -72t8.5 -71q1 -8 9 -8q39 1 77.5 1t76.5 4q8 0 13 5q4 4 10 8
q5 3 9 7t10 1t6.5 -8t0.5 -9q0 -8 -1 -14t-3 -11q-5 -17 -5 -34t8 -34q4 -8 -1 -13.5t-13 -3.5q-16 5 -31 3t-30 -3q-30 0 -60.5 -1.5t-61.5 0.5q-20 2 -40 2t-41 2q-14 1 -27 0.5t-27 -4.5q-13 -3 -26 1q-19 7 -9 24q10 16 13.5 33.5t4.5 35.5q1 66 1.5 131t0.5 131
q-2 111 -9 220q0 14 -6 32t-23 21q-6 1 -7.5 5t1.5 9z" />
    <glyph glyph-name="M" unicode="M" horiz-adv-x="562" 
d="M18 660q7 7 15 2q13 -8 32 -8q23 2 46.5 2.5t45.5 9.5q8 3 12 -3q10 -15 14 -28q13 -43 23 -86t24 -85q11 -35 19.5 -72t25.5 -70q2 -3 3 -5l3 -6q7 14 11 26.5t9 26.5q23 67 40 134t37 134q2 8 4.5 15t7.5 13q7 9 18 6q25 -6 49.5 -9t50.5 -1q13 0 23 7q8 7 12 -1
q2 -5 7.5 -7.5t0.5 -9.5q-8 -11 -10 -22.5t-4 -23.5q-8 -63 -12.5 -125t-0.5 -125q2 -54 1 -105.5t-3 -104.5q-1 -27 -2 -54.5t6 -53.5q2 -8 5 -11q7 -7 4 -13q-4 -4 -8 -7t-10 -1q-2 0 -4 2q-14 5 -27 8.5t-27 3.5q-25 0 -46 -10q-9 -4 -21 -4q-12 -3 -16 7t8 12q3 0 3 4
q14 26 20 53t7 56q2 52 3 102.5t1 101.5q0 17 1 33.5t1 32.5q0 2 0.5 5t-1.5 6q-8 -17 -15 -34.5t-14 -34.5q-12 -30 -21 -61t-20 -61q-4 -12 -10 -23q-2 -5 -2 -6q5 -8 -1 -11t-13 -5q-21 -5 -42 -3.5t-42 3.5q-7 1 -12 3.5t-1 12.5v2l-1 1q-15 32 -25 64.5t-21 65.5
q-8 22 -17.5 43.5t-20.5 43.5v-14q4 -39 3 -78.5t1 -79.5q2 -35 1.5 -69.5t3.5 -69.5q2 -22 9 -41.5t16 -38.5q3 -3 4 -3q10 -2 7 -11q-3 -11 -14 -9q-6 1 -11.5 2t-11.5 3q-24 10 -52 10q-13 0 -25 -2.5t-23 -9.5q-7 -4 -11.5 -1t-9.5 6q-7 4 -1 10q8 8 9 17.5t2 19.5
q4 45 2.5 90t-3.5 90q-2 32 -1 62.5t3 62.5t0 63t-4 63q-2 26 -3.5 53t-5.5 53q-1 20 -8 41q0 4 -3 8q-5 7 -4.5 11t7.5 10z" />
    <glyph glyph-name="N" unicode="N" horiz-adv-x="493" 
d="M19 663q6 4 10 0q11 -6 21.5 -7.5t22.5 -0.5q19 2 36.5 3.5t35.5 4.5q17 4 22.5 1.5t10.5 -19.5q10 -31 17.5 -62.5t17.5 -63.5q17 -61 37.5 -120.5t45.5 -118.5q12 -29 21 -58.5t19 -58.5q2 -5 4 -9.5t6 -10.5q2 57 3 111t2 109q0 18 2 36t0 36q-1 11 -0.5 22t-1.5 22
q-2 20 -1.5 39t1.5 39q0 17 -0.5 29.5t-2.5 23.5t-6 22.5t-12 26.5q-1 2 -2.5 3t0.5 4q2 4 7 1q13 -7 27.5 -7.5t28.5 -2.5q15 -2 30 -2.5t29 3.5q3 1 5.5 1t4.5 2q5 5 8 3.5t8 -5.5q6 -5 6.5 -8.5t-4.5 -11.5t-6 -18t-3 -20q-5 -32 -7.5 -64t-4.5 -64q-2 -35 -3 -69t1 -69
q3 -45 2 -90t-3 -90q-2 -30 -2.5 -60t5.5 -59q1 -4 1 -8t4 -8q3 -3 5 -6.5t-1 -6.5q-4 -4 -8 -7t-10 -1q-1 0 -1.5 0.5t-1.5 0.5q-22 11 -48 11q-14 0 -27 -2.5t-27 -6.5q-5 -2 -10.5 -2.5t-10.5 -1.5q-11 -2 -14 8q-8 22 -18 40.5t-20 38.5q-26 53 -49 107.5t-37 111.5
q-7 29 -18.5 55.5t-24.5 55.5q0 -4 -0.5 -6t-0.5 -4q2 -67 3.5 -133t3.5 -132q1 -30 8.5 -58t17.5 -57q1 -2 1 -4.5t4 -2.5q9 -4 7 -11q-3 -11 -14 -9q-5 1 -10.5 1.5t-10.5 2.5q-13 4 -25 6.5t-24 2.5q-25 0 -53 -11q-8 -3 -12.5 -0.5t-8.5 6.5t-1.5 7.5t5.5 7.5q5 6 5 14
t1 16q4 37 3 73.5t-3 73.5q-4 64 0 130q2 38 1 75.5t-3 75.5q-2 26 -3.5 53.5t-5.5 54.5q-2 11 -3 21.5t-5 21.5q-1 2 -1 4.5t-2 4.5q-6 9 -5 13t9 11z" />
    <glyph glyph-name="O" unicode="O" horiz-adv-x="579" 
d="M81 539q30 45 74.5 72.5t95.5 40.5q9 2 18 3.5t18 3.5q12 3 24.5 0t24.5 -5q69 -13 113 -47.5t77 -94.5q22 -40 32 -82.5t11 -85.5q-1 -129 -70 -234q-34 -52 -88 -80.5t-114 -37.5q-17 -2 -34 0.5t-34 7.5q-35 11 -66.5 29.5t-60.5 41.5q-32 26 -49.5 61.5t-28.5 74.5
q-24 90 -8.5 173t65.5 159zM171 129q21 -42 61 -66q15 -9 30 -5q25 7 43.5 20t33.5 33q17 22 28 46.5t22 48.5q22 47 35.5 96t11.5 102q0 15 -0.5 35.5t-4 42t-10 40t-18.5 28.5q-5 4 -13.5 11t-18 13.5t-18.5 11t-16 4.5q-11 -2 -22.5 -2.5t-22.5 -4.5q-35 -12 -61 -47.5
t-43.5 -80.5t-26.5 -92t-11 -80q-2 -39 1 -77.5t20 -76.5z" />
    <glyph glyph-name="P" unicode="P" horiz-adv-x="434" 
d="M13 647q1 2 2 3.5t1 3.5q5 10 18 10q11 -2 22 -3.5t23 -3.5q25 -3 49 -0.5t49 6.5q32 5 63.5 5.5t63.5 -1.5q44 -3 78.5 -14t69.5 -38q26 -20 33.5 -47t4.5 -58q-6 -59 -29.5 -109t-61.5 -95q-28 -33 -64 -52t-78 -30q-17 -5 -34 -7.5t-34 -6.5q-7 -1 -7 -8
q-1 -35 2 -68.5t5 -67.5q2 -11 5.5 -22t12.5 -20q4 -3 5 -8q3 -11 -8 -11h-12h-29t-29 2q-16 2 -31 0.5t-30 -3.5q-12 -5 -26 0q-22 7 -10 27q17 30 17 67q2 66 2 131v131q0 55 -1.5 110t-6.5 110q-1 14 -7 32t-23 21q-6 1 -7.5 5t2.5 9zM168 343v-25t1 -24q1 -15 12 -24
t29 -1q35 15 61.5 36.5t46 49t34 59.5t24.5 67q8 27 3.5 50t-16.5 41t-29.5 30t-36.5 16q-24 6 -48 9q-17 1 -33 -0.5t-31 -7.5q-14 -3 -15 -16v-10.5t1 -11.5q2 -17 2.5 -34t0.5 -34q1 -43 -3.5 -85.5t-2.5 -84.5z" />
    <glyph glyph-name="Q" unicode="Q" horiz-adv-x="566" 
d="M82 552q30 45 74 71.5t96 40.5q8 2 17 4l18 4q11 2 21.5 0t21.5 -4q38 -8 72.5 -22t61.5 -40q66 -61 91 -151q38 -140 -23 -273q-12 -26 -25.5 -52t-37.5 -45q-8 -6 -10.5 -6.5t-7.5 7.5q-17 24 -31.5 48.5t-31.5 48.5q-6 8 -6 15t5 15q37 66 46 145q11 84 -9 168
q-4 17 -14.5 29.5t-25.5 21.5q-12 8 -23 16.5t-25 8.5q-31 -1 -53 -11t-38 -26.5t-28 -38.5t-23 -48q-23 -53 -32 -109.5t-13 -128.5q-1 -16 4.5 -42t17.5 -54q10 -22 24 -39.5t35 -28.5q17 -9 34 -5q15 4 27.5 9.5t23.5 16.5q4 4 3 8q-7 25 -24 42q-11 11 -26 8q-7 0 -11 5
t2 14q10 11 29 18.5t38 7.5q16 0 29.5 -6.5t21.5 -20.5q14 -24 28.5 -48.5t34.5 -46.5q13 -14 23.5 -29t24.5 -27t29 -20t33 -10q11 -2 21 1t21 8q8 7 14 -2q3 -5 1.5 -8.5t-5.5 -5.5q-26 -11 -50 -24t-52 -20q-34 -8 -61 2.5t-50 36.5q-11 12 -21 29q-4 12 -17 8
q-23 -8 -46 -11.5t-47 0.5q-42 7 -83 29.5t-73 48.5t-49.5 61.5t-28.5 74.5q-24 90 -8.5 173t66.5 159z" />
    <glyph glyph-name="R" unicode="R" horiz-adv-x="516" 
d="M10 654q5 22 27 20q11 0 21 -2t21 -4q25 -4 49 -0.5t48 6.5q32 4 65 5.5t65 -0.5q42 -5 78.5 -15.5t68.5 -37.5q26 -21 33 -48.5t4 -58.5q-6 -64 -33.5 -118.5t-72.5 -99.5q-5 -5 -3 -9q14 -27 21 -56t16 -58q20 -61 64 -105q15 -15 34 -22.5t40 -9.5h5q4 -1 7.5 -2.5
t3.5 -6.5q1 -4 -2.5 -4.5t-6.5 -2.5q-9 -5 -19 -5t-20 -2q-23 -4 -45.5 -5.5t-45.5 0.5q-32 3 -56.5 15t-42 30t-28 39.5t-15.5 43.5t-7 44t-4 45q-2 7 -3.5 8.5t-9.5 -0.5q-19 -6 -38 -9.5t-39 -6.5q-5 -1 -6 -3t-1 -7v-29q-2 -26 1.5 -52.5t5.5 -52.5q0 -23 16 -42
q2 -2 3 -3.5t2 -3.5q3 -6 1 -10t-8 -3h-31.5t-30.5 2q-18 2 -35.5 2t-34.5 -5q-14 -4 -24 0q-22 8 -11 27q9 16 12.5 33t4.5 35q3 69 3 137t-1 137q-1 52 -3 103.5t-5 104.5q0 15 -6.5 32t-23.5 20q-8 1 -8 10zM168 354v-36q0 -5 0.5 -10.5t2.5 -11.5q10 -26 33 -18
q21 7 41 21q2 2 5 3t2 4t-3.5 4t-5.5 3q-8 4 -14 -2q-5 -5 -12 -1q-6 4 -2 13q4 10 11 18t18 13q15 7 30.5 9.5t30.5 -2.5q5 -2 7 -0.5t5 5.5q23 28 36 60t23 65q8 27 3.5 50.5t-16.5 41.5t-29.5 30.5t-35.5 16.5q-12 2 -24 4.5t-25 2.5q-16 2 -32 0t-32 -7q-5 -2 -9.5 -5
t-4.5 -10q-1 -5 -1.5 -11t1.5 -12q4 -17 3.5 -34t-0.5 -34q1 -43 -3.5 -85t-2.5 -85z" />
    <glyph glyph-name="S" unicode="S" horiz-adv-x="390" 
d="M22 226q4 4 12 0q17 -8 35 -8.5t36 1.5q8 0 16.5 1t16.5 1q10 1 16 -6.5t3 -17.5q-2 -7 -4 -12.5t-4 -11.5q-5 -14 -3 -26.5t9.5 -22t19.5 -15t26 -5.5q5 0 10 0.5t10 0.5q12 2 19.5 8.5t12.5 17.5q11 23 6 43t-16 40q-13 24 -32 40t-35.5 33.5t-36.5 32.5q-31 24 -56 60
t-39 72q-16 39 -7 75q11 45 27.5 73.5t56.5 50.5q23 13 47.5 21t51.5 9q46 1 85 -27q64 -47 72 -130q3 -21 -13 -34q-7 -6 -12 -13.5t-11 -13.5q-14 -14 -29 -18t-32 -2q-16 2 -26 8q-16 10 -3 23q17 17 17 44.5t-17 45.5q-16 18 -40 15t-37.5 -10t-20.5 -18t-9 -26.5
t-2 -36.5q1 -16 13 -32.5t28.5 -32t34.5 -28t31 -19.5q17 -10 34.5 -19.5t31.5 -23.5q32 -31 50 -68.5t14 -83.5q-2 -11 -3 -23t-3 -24q-2 -15 -10 -31.5t-20 -30.5t-26.5 -25t-29.5 -14q-3 -1 -6 -3.5t-7 -4.5q-32 -13 -63 -10q-11 1 -20 0t-20 -2q-14 -1 -27 1.5t-25 10.5
q-34 21 -56 52t-39 66q-13 30 -14 61q0 12 12 22z" />
    <glyph glyph-name="U" unicode="U" horiz-adv-x="480" 
d="M-15 653q1 2 2 3.5t2 3.5q5 11 17 9q11 -2 22.5 -3.5t22.5 -3.5q25 -3 49 -0.5t48 6.5q5 2 9 2h9q8 2 10 -5q1 -3 0 -5t-3 -5q-9 -18 -20.5 -35t-11.5 -40q-2 -38 -1.5 -76.5t3.5 -76.5q2 -29 -0.5 -56.5t0.5 -56.5q4 -38 5.5 -77t8.5 -77q3 -16 8.5 -31.5t14.5 -28
t22 -20.5t31 -10q32 -4 52.5 7t35.5 40q13 24 17.5 49.5t6.5 52.5v29q3 32 0 62t-4 59q-3 104 -3 207q0 23 -14 45q-6 9 -10 19t-11 18q-3 4 -0.5 8t8.5 4t12.5 -0.5t12.5 -1.5q17 -2 32.5 -4.5t31.5 -2.5q12 0 23.5 1.5t23.5 3.5q7 2 13.5 2t12.5 1q11 2 16 -8q0 -3 2 -7
q4 -8 3 -11t-9 -5q-15 -5 -20 -20q-6 -14 -7 -29.5t-2 -31.5q-7 -159 -6 -318q0 -177 -167 -222q-16 -3 -32 -4t-32 1q-32 5 -62 16.5t-54.5 30t-41.5 44.5t-25 59q-5 20 -6.5 40t-1.5 41v130.5t-4 130.5q-1 23 -1.5 46t-4.5 46q0 13 -6 23q-5 14 -20 17q-14 3 -7 15z" />
    <glyph glyph-name="V" unicode="V" horiz-adv-x="393" 
d="M-60 668q16 3 28 -1q17 -6 35 -8.5t35 -2.5q31 0 64 11q7 2 14 3l14 2q11 2 15 -5t-1 -16l-2 -2q-26 -39 -30 -81.5t4 -86.5q11 -75 30 -147.5t39 -145.5q3 -9 6 -18.5t3 -19.5q7 7 9 17q9 56 26 110t30 110q7 30 13.5 60.5t8.5 61.5q3 36 1 72.5t-29 63.5q-2 3 -4 7
q-3 9 0 15t13 5q12 -1 24 -3.5t24 -5.5q11 -3 21.5 -4t21.5 -1q29 0 64 8q7 2 13.5 2.5t14.5 1.5q7 0 12.5 -2t7.5 -10q2 -7 -0.5 -12.5t-7.5 -8.5q-20 -14 -30.5 -33t-15.5 -42q-8 -36 -18.5 -71.5t-18.5 -70.5q-13 -48 -27.5 -95t-27.5 -95q-12 -45 -24 -88t-23 -88
q-5 -20 -13.5 -26.5t-28.5 -6.5h-70q-17 0 -25.5 6t-13.5 23q-13 48 -25 96t-25 96q-9 33 -20 65.5t-19 65.5q-12 48 -26.5 95.5t-24.5 95.5q-3 20 -13 35t-22 30q-4 5 -9 7.5t-8 9.5q-7 17 11 22z" />
    <glyph glyph-name="W" unicode="W" horiz-adv-x="691" 
d="M-70 659q6 13 20 11q14 0 26 -3q17 -4 33 -7t32 -3q28 0 55 9q13 4 28 6q6 1 12 1.5t11 -5.5q5 -7 2 -12.5t-7 -10.5q-17 -22 -23 -54q-6 -30 -5.5 -60t6.5 -61q12 -72 31.5 -142t37.5 -142q2 -9 4.5 -17.5t2.5 -19.5q7 9 9 20q14 48 26.5 96.5t24.5 97.5q9 36 16 72.5
t12 74.5q4 51 -11 103q-2 8 -7 12.5t-12 9.5q-6 4 -8 9t-3.5 9.5t2.5 9.5q8 11 20 10q11 -2 21 -3t20 -4q24 -7 49 -7q34 0 70 11q8 2 16 3.5t17 -3.5q10 -6 11.5 -16.5t-9.5 -15.5q-14 -8 -19.5 -20t-8.5 -26q-7 -30 -6 -60.5t6 -61.5q12 -72 31 -142.5t38 -142.5
q6 -17 9 -34q8 14 11 28t7 28q15 57 31 114.5t26 116.5q5 26 9 52.5t3 54.5q-1 27 -7 52t-21 48q-2 2 -3 4l-2 4q-7 21 14 20q17 -2 32 -5.5t31 -6.5q40 -7 83 4q20 5 36 5q6 1 11.5 -1t7.5 -10q3 -7 0.5 -12.5t-7.5 -8.5q-18 -12 -28.5 -29.5t-15.5 -37.5
q-22 -84 -44.5 -166t-46.5 -165q-14 -46 -26 -92t-23 -92q-5 -21 -13.5 -27.5t-29.5 -6.5h-71q-17 0 -25 6.5t-13 22.5q-12 48 -24.5 96t-25.5 96q-7 25 -14.5 49.5t-15.5 50.5q-7 -20 -13.5 -39.5t-11.5 -39.5q-14 -51 -25.5 -101.5t-28.5 -100.5q-1 -2 -1 -4.5t-1 -4.5
q-6 -17 -14 -24t-26 -7h-73q-17 0 -25 6.5t-13 22.5q-14 48 -26 95.5t-25 95.5q-10 35 -21 69t-19 69q-11 46 -24.5 90.5t-23.5 92.5q-9 45 -47 75q-4 3 -7 8.5t-1 12.5z" />
    <glyph glyph-name="X" unicode="X" 
d="M-7 658q14 -2 26.5 -3t25.5 -3q29 -3 56.5 0.5t55.5 6.5q8 2 16 3t16 0q26 -3 15 -25q-5 -9 -10 -16.5t-10 -16.5q-11 -20 -11.5 -41.5t4.5 -44.5q6 -29 22 -52.5t30 -48.5q9 14 17.5 27t16.5 25q12 17 17 36t8 39q3 37 -19 71q-4 5 -7 9.5t-6 9.5t-4.5 10t1.5 10
q5 8 18 8q11 -1 21 -1.5t21 -2.5q20 -3 40 -5t40 -2q12 0 23.5 1t23.5 4q6 2 12 1.5t12 0.5h12t9 -7q7 -16 -3 -29q-3 -3 -5 -4q-23 -11 -40.5 -28t-32.5 -37.5t-28 -42.5t-27 -43q-19 -32 -37 -63l-36 -62q-5 -8 -1 -15q17 -33 37.5 -64t41.5 -62q14 -23 27 -46t30 -43
q13 -16 26.5 -30.5t30.5 -25.5q8 -5 14.5 -12.5t5.5 -18.5q-1 -8 -3.5 -10.5t-10.5 -2.5q-27 2 -54 6q-20 3 -40.5 1t-41.5 -4q-13 -2 -26.5 -3.5t-26.5 -3.5h-12q-11 0 -15.5 6.5t0.5 17.5q4 8 7.5 16.5t8.5 16.5q14 21 14.5 42t-7.5 44q-11 28 -24.5 54.5t-27.5 54.5
q-5 -9 -8.5 -17.5t-8.5 -16.5q-14 -25 -25 -50t-16 -53q-4 -20 6 -41q5 -11 11 -22t11 -23q14 -32 -19 -29l-38 4t-37 4q-45 6 -85 -1q-9 -2 -18 -1.5t-19 -1.5q-12 -1 -12 12q-1 19 16 29q35 21 57 51.5t42 64.5l22 36t23 35q14 21 28 43t25 45q4 7 1 11q-20 26 -36.5 54.5
l-33 57t-34.5 56t-39 52.5q-13 17 -27.5 32t-31.5 26q-8 5 -11 16q-4 12 2 19t19 6z" />
    <glyph glyph-name="Y" unicode="Y" horiz-adv-x="438" 
d="M55 57q30 20 51 47t39 56q14 22 27 42.5t27 41.5q15 23 28 47t27 48q6 9 13 17.5t13 17.5q9 13 20 32.5t21 40.5t18 41.5t12 36.5q5 20 4 39.5t-10 38.5q-10 20 -21 35q-8 11 -4 20q4 5 9 6.5t10 1.5q11 -1 21.5 -1.5t21.5 -2.5q20 -3 39 -5t39 -2q12 0 23.5 1t23.5 4
q6 2 12 1.5t12 0.5h12t9 -7q4 -8 2 -16t-6 -14l-3 -3l-3 -3q-24 -24 -47.5 -48t-44.5 -52q-30 -40 -54.5 -83t-50.5 -86q-8 -14 -16 -27.5t-16 -27.5q-10 -16 -21 -36.5t-21.5 -42.5t-19 -44t-12.5 -41q-6 -23 5 -45q5 -11 10.5 -22.5t11.5 -22.5q16 -31 -18 -29
q-19 2 -37.5 3.5t-38.5 4.5q-45 6 -86 -1q-8 -2 -17 -2t-18 -1q-12 0 -12 11q-3 20 16 30zM39 645q1 18 19 17q29 -2 54 -6q20 -2 40 -0.5t40 3.5q13 2 26.5 3.5t26.5 3.5q6 0 8 1q6 0 11.5 -1.5t8.5 -7.5q3 -5 1 -10.5t-5 -10.5q-5 -8 -9.5 -15t-8.5 -15q-19 -41 -7 -86
q6 -23 17 -42.5t24 -39.5q7 -6 0 -13q-10 -14 -19.5 -28t-17.5 -29q-5 -9 -10 0q-19 33 -39 65.5t-41 64.5q-20 32 -49 65.5t-59 56.5q-12 9 -11 24z" />
    <glyph glyph-name="Z" unicode="Z" horiz-adv-x="524" 
d="M25 55q22 13 43.5 37.5t34.5 46.5q25 42 52 81t51 81q23 42 45.5 81.5t46.5 78.5q29 44 26 101q0 12 -14 11q-39 -4 -78 -7.5t-78 -11.5q-7 -1 -15 0q-6 2 -9.5 6t-1.5 10q6 17 10.5 32.5t9.5 32.5q2 7 8.5 10t13.5 5q17 6 35 6.5t36 1.5q4 1 8.5 0.5t9.5 -0.5v1h36
q26 0 50.5 1t49.5 0t49.5 -0.5t48.5 -1.5q13 -1 25.5 -3t25.5 -4q7 0 8 -8q2 -11 -3 -19t-13 -13q-31 -20 -51.5 -46.5t-39.5 -55.5q-14 -22 -27.5 -44t-27.5 -44q-54 -88 -105 -176t-95 -182q-6 -13 -13 -25t-12 -25q0 -6 -6 -5q-29 1 -58 -1.5t-59 -0.5q-6 0 -11 2.5
t-10 6.5q-9 10 -9 21t13 19zM196 15q5 20 16.5 36t18.5 36q1 4 6 4q51 2 101.5 7t98.5 20q10 3 19.5 4.5t18.5 3.5q20 5 17 -15q-4 -14 -6.5 -28t-7.5 -28q-4 -10 -8 -19l-8 -18q-7 -15 -24 -15q-20 2 -39.5 2.5t-39.5 1.5v-1q-19 0 -37 -0.5t-36 0.5q-21 1 -41.5 2
t-41.5 -2q-10 -1 -7 9z" />
    <glyph glyph-name="a" unicode="a" horiz-adv-x="331" 
d="M60 268q19 23 45 33.5t55 14.5q12 2 24.5 -1.5t23.5 -8.5q3 -2 5 -2t2 5q-1 14 -2.5 29.5t-7 28t-16 20.5t-29.5 8q-21 0 -35 -15q-2 -4 -1.5 -6.5t0.5 -5.5q2 -14 -5.5 -29t-20.5 -22q-17 -9 -32.5 0t-19.5 29q-1 8 -0.5 14.5t2.5 14.5q7 24 24 44.5t39.5 34t48 19.5
t49.5 2q14 -2 26.5 -7.5t23.5 -11.5q22 -12 31 -31.5t13 -42.5q5 -34 3.5 -67.5t-2.5 -67.5q-1 -39 -2 -79t7 -79q2 -8 7 -21.5t14 -16.5q12 -7 10 -19q0 -16 -14 -19q-11 -2 -23 -5t-24 -2q-29 2 -41.5 21t-19.5 43q-22 -23 -47 -39.5t-59 -16.5q-32 0 -60 16t-37 48
q-14 54 -2 101t47 89zM138 107q15 0 26 15t19 35t12.5 40.5t6.5 31.5q2 19 -7 33q-10 17 -25 11q-19 -8 -32 -21q-30 -41 -35 -94q0 -15 8 -33t27 -18z" />
    <glyph glyph-name="b" unicode="b" horiz-adv-x="383" 
d="M15 726q7 14 20 10q23 -8 46 -8t46 -1q37 0 34 -35q-2 -21 -6.5 -42t-8.5 -41q-10 -54 -13 -107t-3 -110q38 37 90 40q45 3 78.5 -18t52.5 -60q22 -50 22 -105q1 -38 -3 -75.5t-19 -73.5q-14 -32 -36 -55.5t-58 -31.5q-25 -7 -48.5 -2.5t-47.5 14.5q-4 2 -6.5 2.5
t-5.5 -4.5q-6 -10 -18 -8q-18 2 -36.5 1.5t-35.5 -2.5q-7 0 -10 1q-34 2 -21 34q5 14 6 27.5t2 27.5q5 107 4.5 213.5t-2.5 213.5q-1 32 -2 63t-8 62q-3 19 -14 38q-5 8 -4 16t5 16zM129 179q0 -9 2 -23.5t5.5 -29.5t9 -27.5t14.5 -17.5q17 -10 35 -10q21 0 36 14t22 34
q11 34 14.5 69t4.5 71v12q2 21 -6 38t-20 33q-16 18 -43 16q-18 -1 -31 -11t-24 -24q-8 -9 -12 -19.5t-6 -23.5q-5 -25 -3.5 -50t2.5 -51z" />
    <glyph glyph-name="c" unicode="c" horiz-adv-x="286" 
d="M43 334q8 20 20.5 41.5t29 39t37.5 29t45 11.5q34 0 57 -23q4 -4 6.5 -5t7.5 2q15 8 24 -6q11 -12 0 -25q-16 -19 -25.5 -40.5t-17.5 -44.5q-3 -8 -6 -17.5t-6 -18.5q-6 -16 -20 -16q-9 0 -15 5q-14 10 -15.5 16t3.5 22q4 11 7 22.5t4 22.5q0 4 0.5 7.5t-1.5 7.5
q-5 -1 -7 -8q-64 -101 -47 -222q1 -5 4 -13t8 -15t11.5 -12t12.5 -5q7 0 13.5 5t12 12.5t9.5 15.5l7 14q12 31 18 64l4 10t5 10q7 11 20 11q10 0 17 -8q12 -14 9 -36q-5 -22 -15 -52t-25.5 -56t-37 -44.5t-50.5 -18.5q-16 0 -34 6q-44 12 -68 41t-32 73q-8 52 2 101t28 97z
" />
    <glyph glyph-name="m" unicode="m" horiz-adv-x="580" 
d="M11 45q2 8 3.5 16t4.5 16q24 60 30.5 123t1.5 128q-2 29 -3 57t-4 57q-1 34 30 31q16 -2 31.5 -1.5t31.5 -3.5q17 -4 23 -10t7 -25q16 14 32 23t36 13q30 6 58 -6t42 -41q3 -5 4.5 -5t6.5 3q9 6 17 13.5t17 13.5q16 11 34 18t39 6q29 -1 51.5 -19t31.5 -47q10 -32 12 -65
t1 -65q-2 -27 -3.5 -53.5t-2.5 -53.5q-1 -23 0.5 -45t3.5 -44q2 -14 12 -23q6 -5 10 -11t1 -14q-2 -7 -11 -14t-16 -6q-22 2 -42.5 -1.5t-41.5 -1.5l-14 2t-13 4q-12 6 -16 17t4 22q14 20 19.5 41t8.5 42q7 45 10 90t1 90q-1 17 -3 35t-8 35q-7 20 -19 20q-5 0 -17 -5
q-19 -10 -32 -24.5t-24 -31.5q-3 -5 -2 -8q4 -43 -0.5 -85.5t-3.5 -85.5q0 -21 -1 -42t3 -42q2 -17 13 -26q7 -5 10.5 -11.5t-0.5 -14.5t-10.5 -13.5t-15.5 -5.5q-21 1 -41.5 -2t-41.5 -1q-13 0 -26 5t-17.5 16.5t3.5 21.5q16 20 21 44.5t8 48.5q5 38 8.5 75.5t2.5 75.5
q0 20 -1.5 39t-6.5 38q0 9 -7 21.5t-17 12.5t-22 -8q-37 -23 -55.5 -61.5t-18.5 -81.5q1 -41 2 -81t11 -80q2 -9 5 -18l6 -18q1 -2 1.5 -5t1.5 -5q10 -31 -24 -34q-11 -1 -20 -0.5t-20 1.5q-26 4 -57 -4q-14 -4 -25 7t-8 27z" />
    <glyph glyph-name="e" unicode="e" horiz-adv-x="328" 
d="M10 200q0 39 9.5 80.5t29.5 78t50.5 63t73.5 34.5q20 4 38.5 -0.5t32.5 -16t23.5 -28t10.5 -36.5q3 -39 -8.5 -69.5t-31.5 -53t-46 -37.5t-52 -23q-8 -2 -15.5 -2t-15.5 1q-7 0 -7 -5q1 -18 3.5 -35t7.5 -34q1 -1 1 -4q14 -30 37 -30q11 0 24 6q27 13 39.5 34.5
t18.5 49.5q3 14 4.5 29t8.5 29q12 25 39 16q9 -3 15.5 -8.5t13.5 -12.5q5 -5 3 -16q-4 -27 -17.5 -61.5t-34.5 -64.5t-48.5 -51t-60.5 -22q-39 -2 -70.5 11.5t-51.5 52.5q-14 28 -20 59t-4 66zM114 253q7 0 10 1q16 2 30.5 10.5t26 21.5t18 28.5t6.5 31.5q0 14 -4 26
q-10 18 -26 8q-15 -9 -26 -22.5t-19 -29.5t-13.5 -33.5t-8.5 -33.5q-2 -8 6 -8z" />
    <glyph glyph-name="h" unicode="h" horiz-adv-x="386" 
d="M18 75q7 20 13.5 38t9.5 38q3 23 5.5 44t2.5 43q0 48 0.5 95.5t-0.5 95.5v56t-2 56t-7.5 56t-10.5 56l-4 22t-2 22q2 30 31 30q20 0 39 1t39 4q7 0 14 3q9 4 16.5 -1.5t9.5 -14.5q3 -16 -6 -32q-8 -15 -11 -32.5t-5 -35.5q-5 -50 -5.5 -99.5t-0.5 -99.5v-8q20 23 49 41.5
t61 18.5q35 0 59 -21.5t32 -55.5q8 -40 8.5 -80.5t-1.5 -81.5q-2 -36 -4.5 -72t2.5 -71q2 -11 5 -20.5t13 -16.5q12 -8 7 -21q-8 -20 -27 -20q-20 1 -40 -2t-40 -1q-8 1 -15 2t-13 3q-14 5 -18.5 16.5t3.5 22.5q14 20 19.5 43t9.5 46q6 39 9.5 78.5t1.5 78.5q-1 19 -1 38
t-6 36q-1 2 -1 4t-2 4q-7 26 -22 26q-12 0 -24.5 -9t-23.5 -21t-20 -25.5t-14 -22.5q-5 -11 -6.5 -21t-0.5 -22q1 -48 1 -95.5t3 -95.5q1 -14 2.5 -27t7.5 -25q5 -9 0 -17.5t-16 -10.5q-10 -2 -19.5 -1t-18.5 2q-16 2 -31 1.5t-31 -5.5q-11 -3 -20 3.5t-11 18.5q-2 11 1 21z
" />
    <glyph glyph-name="k" unicode="k" horiz-adv-x="405" 
d="M10 46q1 9 3.5 18.5t6.5 17.5q17 37 22.5 76t6.5 79q1 49 1.5 98t-1.5 99q-1 29 -1 58t-3 58q-3 32 -9 62.5t-11 62.5q-2 5 -2 11v11q1 30 31 30q20 0 39 1t39 4q7 0 14 3q9 4 17 -1.5t9 -15.5q1 -16 -7 -31t-10.5 -32t-4.5 -34q-5 -50 -6 -99.5t0 -99.5q0 -13 -1.5 -25
t-1.5 -25q2 0 3 1.5t2 2.5q25 51 50.5 101t46.5 103q9 20 21 20q9 0 20 -7q7 -4 14.5 -4t15.5 -2q16 -3 32 -6.5t32 -7.5q13 -3 16 -17q3 -15 -9 -23q-24 -15 -44.5 -30t-38 -32t-33.5 -37t-31 -45q-6 -10 -6 -21t4 -22q26 -76 65 -148t85 -138q11 -14 6.5 -26t-22.5 -16
q-26 -5 -44 8q-20 13 -41 13q-14 0 -34 -5q-35 -8 -39 26q-2 11 -2 21.5v21.5q-1 23 -1.5 46t-2 45.5t-6 44.5t-14.5 42l-3 9q-7 -14 -13 -28t-14 -27q-13 -22 -11 -53q2 -27 2 -54t3 -55q2 -15 7 -27q5 -11 -0.5 -20t-17.5 -11q-9 -2 -18 -1t-17 2q-16 2 -31.5 1.5
t-30.5 -5.5q-14 -4 -24 7t-8 27z" />
    <glyph glyph-name="r" unicode="r" horiz-adv-x="374" 
d="M10 57q2 20 6 40t8 41q5 32 7 64.5t5 64.5q2 25 3 49.5t-1 48.5q-2 17 -5 32.5t-11 31.5q-5 11 1 20t18 9q8 0 16 0.5t16 0.5q13 1 25.5 1t24.5 -5q13 -5 18.5 -17t2.5 -27q-2 -11 -5 -21t-6 -21q12 17 26.5 34.5t31.5 31.5t37.5 22.5t42.5 8.5q21 0 34.5 -11t21.5 -27.5
t11 -35.5t3 -36q0 -19 2 -35t14 -32q11 -14 6 -26t-22 -17q-20 -6 -43 -1q-13 3 -29 1q-3 0 -6.5 -0.5t-7.5 -0.5q-23 0 -35 15t-6 37q5 17 10.5 33.5t10.5 33.5q2 6 2 11.5v11.5q-7 -1 -11 -4t-9 -6q-71 -60 -90 -144q-3 -14 -2 -27t1 -27q2 -26 5 -52.5t9 -52.5
q2 -7 4.5 -13t4.5 -13q4 -12 -1.5 -21t-18.5 -9q-20 0 -39 -1.5t-39 -1.5q-21 -2 -32 9.5t-9 32.5z" />
    <glyph glyph-name="d" unicode="d" horiz-adv-x="384" 
d="M25 335q14 39 40.5 63.5t68.5 32.5q30 5 57 -4t53 -26l4 -4t6 -5q0 45 -2 86.5t-8 83.5q-5 32 -10 62.5t-10 62.5q-6 40 35 40q23 1 45 2t45 7q6 2 12 -0.5t9 -9.5t4 -15t-4 -15q-11 -18 -14 -38t-5 -40q-7 -94 -7 -187.5v-188.5l2 -76t3 -76q0 -12 1.5 -23.5t7.5 -22.5
q5 -10 -0.5 -18.5t-16.5 -10.5q-8 -2 -16.5 -1.5t-16.5 1.5q-12 2 -24.5 2t-24.5 -2q-8 -1 -14.5 0.5t-11.5 9.5q-2 5 -5 3t-5 -3q-17 -5 -32 -10.5t-32 -5.5q-43 0 -71 19.5t-44.5 50.5t-23.5 68t-9 71q-2 30 1 59t13 58zM121 162q2 -15 5.5 -30t11.5 -28q9 -16 25 -25.5
t31 -7.5q23 2 33.5 11.5t16.5 32.5q10 29 12 61.5t2 63.5q0 35 -11 66.5t-48 47.5q-13 5 -24 5q-12 0 -23 -6.5t-19 -17t-13.5 -22.5t-6.5 -23q-4 -32 -0.5 -64t8.5 -64z" />
    <glyph glyph-name="o" unicode="o" horiz-adv-x="355" 
d="M14 266q7 47 22.5 89.5t41.5 80.5q7 10 15 19t19 14q21 8 37 -3q3 -2 8 -2q77 5 121 -29t59 -93q5 -18 6.5 -36t1.5 -38q-2 -47 -14 -93t-38 -88q-23 -37 -56 -57t-79 -17q-100 6 -134 105q-11 37 -13 73.5t3 74.5zM103 167q0 -10 2 -24t7 -27t13.5 -22t22.5 -9
q20 0 33 15.5t21 32.5q16 35 27.5 71.5t21.5 73.5q5 14 7.5 28.5t1.5 28.5q-1 17 -13 30t-30 13q-11 0 -23 -6q-9 -4 -15.5 -10t-12.5 -13q-34 -38 -47.5 -84.5t-15.5 -97.5z" />
    <glyph glyph-name="y" unicode="y" horiz-adv-x="346" 
d="M-19 -80q1 2 1 4t1 4q2 17 17 19q16 2 22 -12q13 -29 33.5 -46.5t54.5 -17.5q30 0 52 16.5t36 41.5t22.5 54t11.5 54q-28 -28 -63 -38q-17 -5 -35 -3t-34.5 9t-30 19t-22.5 28q-35 65 -29 139q2 39 5.5 77.5t1.5 77.5q0 16 -2 33t-14 29q-8 8 -10.5 13.5t1.5 13.5
q2 8 11.5 14t17.5 5q11 -2 21 -0.5t21 1.5q14 2 27 2t27 -3q20 -5 26 -18.5t-7 -29.5q-11 -17 -14.5 -34t-7.5 -36q-9 -44 -10 -87.5t1 -88.5q0 -11 1.5 -21t6.5 -20q8 -17 23.5 -26.5t34.5 -5.5q14 3 25 18q23 32 26.5 67.5t3.5 72.5q0 8 -0.5 15t0.5 15q2 25 -1.5 48.5
t-6.5 48.5q-1 7 -4.5 13.5t-6.5 12.5q-5 10 -4.5 19.5t4.5 18.5q4 10 15.5 15t24.5 2q14 -3 28.5 -4.5t28.5 1.5q11 2 17.5 -5t6.5 -18q-2 -21 -3 -42.5t-3 -42.5q-5 -50 -3 -99.5t4 -100.5t-2.5 -101.5t-19.5 -98.5q-22 -71 -69.5 -114t-122.5 -54q-40 -6 -74.5 12.5
t-54.5 56.5q-10 19 -13 38t6 39z" />
    <glyph glyph-name="I" unicode="I" horiz-adv-x="226" 
d="M12 642q2 2 2.5 4.5t2.5 4.5q3 5 6 7t9 1q11 0 22.5 -2.5t23.5 -4.5q25 -3 49.5 0t48.5 7q5 1 9.5 1.5t9.5 0.5q4 0 8 -6q2 -3 -2 -10q-9 -18 -20.5 -34t-12.5 -39q-2 -45 -1 -89t5 -89q2 -26 3 -52.5t2 -52.5q2 -59 9 -116.5t17 -116.5q1 -8 6 -19q2 -4 3.5 -8t2.5 -9
q5 -25 -21 -22q-19 2 -37.5 4t-37.5 2q-12 0 -24.5 -1t-24.5 -4q-14 -4 -25 2q-18 8 -9 24q10 16 13.5 33.5t4.5 35.5q1 69 2 136.5t-1 135.5q0 52 -1 104t-6 103q-2 20 -7 36q-4 8 -9 13t-14 7q-6 1 -7.5 4.5t1.5 8.5z" />
    <glyph glyph-name="p" unicode="p" horiz-adv-x="383" 
d="M15 -226q11 19 14 39t5 40q8 114 8 227t-4 228q-1 23 -1.5 47t-4.5 47q-1 5 -2 9.5t-3 9.5q-5 11 -1 19.5t15 10.5q11 3 24 1q29 -4 61 -1q8 1 14 -0.5t11 -9.5q3 -5 5 -3l4 4q20 14 43 15.5t46 -2.5q39 -7 63.5 -30t38.5 -58q15 -36 19 -74t3 -76q-1 -26 -5 -51t-15 -49
q-18 -41 -52.5 -63t-76.5 -20q-50 2 -87 34q-1 2 -6 5q-2 -3 -1.5 -6t0.5 -5q-1 -67 6.5 -132t20.5 -130q4 -12 4 -30q-2 -30 -30 -31q-21 0 -41.5 -0.5t-41.5 -4.5h-4q-8 -4 -16 -4t-13 9q-9 19 0 35zM126 216q2 -11 3 -22.5t4 -22.5t11 -22.5t18.5 -20.5t22.5 -15t24 -6
t23.5 7.5t20 18.5t14 24t5.5 24q1 26 -0.5 51t-4.5 51q-5 41 -19 75q-8 18 -24.5 28.5t-33.5 8.5q-25 -3 -34.5 -11.5t-16.5 -32.5q-7 -25 -9 -49t-4 -49v-37z" />
    <glyph glyph-name="q" unicode="q" horiz-adv-x="384" 
d="M29 358q15 42 48 71.5t80 29.5q31 0 65 -17q10 -5 14 2q4 9 15 7q20 -3 39 -1.5t39 3.5q5 0 15 -2t14 -10.5t0 -16.5q-10 -23 -10 -49q-3 -102 -4 -203t1 -204q1 -34 1.5 -67.5t5.5 -67.5q2 -16 5 -31.5t13 -29.5q5 -8 4.5 -15.5t-4.5 -15.5q-7 -13 -20 -10
q-23 6 -45.5 6.5t-45.5 1.5q-39 1 -36 38q2 25 7.5 48.5t9.5 47.5q8 50 11 99.5t3 101.5q-36 -33 -79 -39t-80 12.5t-58 57.5q-13 23 -19 49t-7 52q-1 39 2 77t16 75zM143 120q9 -10 28 -12q23 -2 38.5 9.5t27.5 26.5q13 16 17 35q5 29 4 58t-3 58q-1 16 -4 31t-7 30
q-7 20 -17 28t-34 11q-20 2 -36.5 -10.5t-24.5 -35.5q-11 -34 -14.5 -69t-5.5 -70v-24q-1 -20 9 -36t22 -30z" />
    <glyph glyph-name="s" unicode="s" horiz-adv-x="311" 
d="M36 160q17 5 34.5 8t34.5 6q12 2 21 -8.5t7 -23.5q-1 -5 -2.5 -9t-3.5 -8q-6 -15 -5.5 -24.5t11.5 -20.5q22 -22 46 -12q11 5 18 16.5t6 25.5q-1 18 -9.5 33.5t-21 30t-26.5 26.5t-27 22q-15 12 -30 26t-27 30.5t-20 35t-8 38.5q0 26 7.5 52.5t27.5 44.5q29 26 64 36
t74 2q42 -9 61.5 -37t33.5 -64q7 -17 4 -29t-17 -23q-11 -9 -22.5 -15.5t-25.5 -8.5t-29 6q-7 4 -11 8.5t0 15.5q5 9 4.5 19.5t-2.5 20.5q-2 11 -11.5 18.5t-21.5 9.5q-13 1 -24 -4.5t-18 -15.5t-9.5 -22t1.5 -25q5 -14 13.5 -23t20.5 -17q14 -8 28 -15.5t28 -15.5
q29 -18 51.5 -41.5t31.5 -58.5q5 -20 5 -39t-4 -39q-2 -11 -9 -19t-12 -17q-6 -12 -18.5 -21t-27.5 -15t-30.5 -9t-28.5 -4q-106 -6 -136 85q-3 9 -8 17.5t-7 17.5q-5 26 19 33z" />
    <glyph glyph-name="n" unicode="n" horiz-adv-x="386" 
d="M10 44q3 18 9 33q24 61 30.5 123.5t1.5 127.5q-2 29 -3.5 57t-3.5 56q-3 37 30 32q17 -2 33 -2.5t33 -3.5q15 -3 21 -10t5 -24q20 16 41.5 27t47.5 11q32 0 55.5 -18.5t32.5 -52.5q11 -39 11 -79t-2 -80t-3.5 -79.5t3.5 -79.5q0 -8 2.5 -14.5t9.5 -11.5q17 -12 10 -26
q-4 -8 -10.5 -13.5t-15.5 -5.5q-20 1 -39 -2t-39 -1q-14 0 -29 5q-14 5 -19 16t3 22q15 21 20.5 45t9.5 49q5 37 8.5 74t1.5 75q0 7 -0.5 25t-3.5 37.5t-9.5 34.5t-17.5 15q-7 0 -18 -6q-28 -16 -46 -40t-24 -56q-5 -29 -5.5 -58.5t-0.5 -58.5q0 -20 -0.5 -41t4.5 -41
q2 -11 6 -21t9 -19q5 -11 4.5 -20t-5.5 -18q-6 -13 -19 -14h-18.5t-18.5 2q-30 5 -59 -4q-14 -4 -24.5 6.5t-8.5 26.5z" />
    <glyph glyph-name="l" unicode="l" horiz-adv-x="201" 
d="M17 77q14 39 22.5 72.5t8.5 76.5q1 51 2 101t-1 101l-3 114q-2 29 -8 56.5t-10 55.5q-2 11 -4 21.5t-1 21.5q2 30 30 30q20 0 39.5 1t39.5 4q4 0 7.5 1t6.5 2q8 2 15 -2t9 -13q5 -15 -4 -31q-7 -13 -10 -27.5t-5 -28.5q-4 -36 -5 -71.5t-2 -71.5q0 -20 0.5 -39.5
t-1.5 -39.5q-5 -44 1 -86t11 -85q9 -81 24 -158q3 -17 9 -32q6 -16 -0.5 -25.5t-24.5 -9.5h-22q-10 -2 -21 -1t-23 3q-14 1 -27.5 0t-27.5 -5q-11 -3 -20.5 4t-11.5 21q-2 11 0.5 20.5t6.5 19.5z" />
    <glyph glyph-name="g" unicode="g" horiz-adv-x="391" 
d="M-18 -63q1 13 5.5 25t9.5 23t20 9q14 -2 17 -15q11 -32 31 -51.5t57 -19.5q32 0 55 17t40 44.5t28 62t17.5 70.5t9.5 70t4 59q-15 -44 -33 -86.5t-48 -77.5q-15 -18 -37 -30.5t-47 -12.5q-22 0 -39.5 10.5t-29.5 27.5t-18 38t-6 41q-6 109 45 205q9 18 26 38.5t37.5 38.5
t44 29.5t45.5 11.5q34 0 66 -32l5 -5q2 7 3 12.5t3 11.5q5 11 17.5 15.5t23.5 -0.5t21 -4h17q14 1 20.5 -6.5t4.5 -21.5q-3 -18 -6 -35.5t-7 -35.5q-10 -46 -14 -92t-7 -94q-2 -54 -11 -111t-30.5 -106.5t-59.5 -87.5t-98 -54q-29 -8 -55 -8q-11 0 -23 1.5t-23 6.5
q-17 6 -32 19t-26 29.5t-17.5 34.5t-5.5 36zM136 139q7 0 16 7.5t17 18t15 21t10 16.5q8 16 16.5 36t16 41.5t13.5 43t9 39.5q4 26 -23 23q-2 0 -3 -0.5t-3 -0.5q-25 -10 -46 -34q-29 -37 -40 -79.5t-15 -87.5q0 -4 0.5 -11.5t2 -14.5t5 -12.5t9.5 -5.5z" />
    <glyph glyph-name="T" unicode="T" horiz-adv-x="300" 
d="M-140 571q5 20 10.5 38.5t10.5 38.5q6 24 30 22q13 -1 25.5 -1.5t25.5 -2.5q15 -2 30 1t30 4q17 1 32.5 1t32.5 -5q21 -7 46 -7q14 0 27 2t26 5q1 0 2 0.5t2 0.5q0 -13 -0.5 -25t0.5 -24q4 -34 1.5 -67.5t-0.5 -66.5l4 -68l4 -68q2 -21 2 -42.5t2 -42.5q2 -36 4.5 -72
t5.5 -72q1 -9 3 -22t6 -26t9.5 -24.5t12.5 -18.5q2 -3 3.5 -5t-0.5 -6q-6 -9 -13 -8q-17 1 -34.5 1.5t-34.5 1.5t-34 -0.5t-34 -3.5q-16 -2 -28 2q-8 3 -10.5 9.5t1.5 14.5q10 16 13.5 33t4.5 36q3 71 3 141.5t-1 141.5q-1 50 -3 98.5t-5 97.5q0 8 -8 9q-17 2 -33.5 1.5
t-33.5 -0.5q-5 0 -7 -3.5t-3 -8.5q-3 -8 -1.5 -15.5t3.5 -15.5q1 -5 1 -12q2 -13 -5.5 -18t-18.5 0q-10 5 -19 10l-18 10q-16 9 -35 8q-5 0 -10.5 0.5t-10.5 1.5q-18 3 -13 21zM213 671q3 2 7 1.5t9 -0.5q10 1 20 -0.5t20 -3.5q17 -3 35 -1.5t36 2.5q5 0 9.5 0.5t10.5 0.5
q24 2 30 -22l10 -38t10 -39q6 -16 -13 -21q-3 -1 -5.5 -1.5t-5.5 -0.5q-20 3 -37 -5.5t-34 -16.5l-6 -4t-6 -3q-11 -3 -17.5 1.5t-5.5 15.5q0 7 1.5 14t2.5 13q1 9 0 16q-3 14 -16 14h-50q-8 0 -7 7v28t2 28q0 4 -2 8.5t2 6.5z" />
    <glyph glyph-name="t" unicode="t" horiz-adv-x="211" 
d="M-106 615q2 7 9 8t14 -1q26 -6 57 -9q19 -4 37.5 -3t37.5 4q5 1 4.5 3.5t-0.5 4.5q-2 16 -5 31t-5 31q-9 41 35 43h27q14 -1 27.5 -0.5t26.5 -2.5q8 -4 9 -10q3 -14 3 -26.5t-5 -25.5q-11 -26 -13.5 -53t-4.5 -56q-3 -54 -1 -107.5t4 -107.5q2 -50 4.5 -99.5t8.5 -99.5
q2 -17 7.5 -33t13.5 -32q7 -13 5 -28.5t-13 -26.5q-5 -5 -10 -5q-13 0 -25.5 0.5t-25.5 2.5q-14 2 -28.5 0t-29.5 -2q-36 0 -29 35q2 11 5.5 22.5t8.5 22.5q12 26 17 54t7 57q2 56 2 111.5t-1 112.5q0 23 -1 46t-1 46q0 13 -11 10q-80 -9 -157 -9q-7 1 -10 6t1 11q9 14 1 28
q-7 12 -4 24t8 23zM165 550q1 2 0.5 4t-0.5 5q2 28 6 54q2 9 9 9q33 1 66 6t65 10q5 1 9 1t7 -5q3 -4 2 -8.5t-3 -8.5q-16 -28 -13 -60q0 -19 -8 -26.5t-26 -6.5t-35.5 4t-35.5 5q-7 2 -14.5 3t-15.5 0q-14 0 -13 14z" />
    <glyph glyph-name="j" unicode="j" horiz-adv-x="145" 
d="M-218 -61v6q3 20 19 21q15 2 23 -16q13 -28 33 -44t52 -16q46 0 72.5 33.5t39.5 80.5t16 97t3 83q-2 42 -2 78t-5 70q-4 24 -6 48t-7 47q-7 33 9 41t38 1q20 -6 35 -2q18 5 26.5 -3t6.5 -26q-5 -63 -7.5 -125t1.5 -125q3 -53 0 -105.5t-15 -104.5q-13 -54 -43 -95.5
t-81 -67.5q-20 -11 -42 -18t-45 -7q-39 0 -68 20t-48 54q-10 18 -12 36.5t7 38.5zM19 611q11 18 31 31q8 6 18.5 6t19.5 -3t17 -10t14.5 -16t10.5 -19t4 -19q-1 -23 -14.5 -41.5t-33.5 -23.5q-17 -5 -36 3.5t-30 23.5t-11.5 33t10.5 35z" />
    <glyph glyph-name="i" unicode="i" horiz-adv-x="163" 
d="M11 63q5 31 11 61t8 61q3 37 5.5 75.5t4.5 84.5q2 11 -2 28.5t-8 37.5q-1 4 -2.5 7.5t-3.5 7.5q-5 14 0.5 23.5t19.5 8.5q8 0 14.5 0.5t14.5 1.5q13 0 26 -0.5t25 -4.5q19 -6 21 -27q1 -10 -1 -19t-5 -18q-8 -24 -11.5 -48t-2.5 -50q1 -38 1 -74.5t3 -74.5
q3 -24 7.5 -47.5t12.5 -46.5q5 -13 -1 -22.5t-19 -8.5q-20 0 -38.5 -1.5t-37.5 -2.5q-23 -1 -34.5 12t-7.5 36zM40 612q6 9 13.5 16t15.5 13q10 7 22 5q14 0 26 -7.5t21 -18.5t13 -25t1 -27q-5 -19 -15.5 -33.5t-30.5 -19.5q-17 -5 -36.5 3t-30.5 24t-10.5 34.5t11.5 35.5z
" />
    <glyph glyph-name="f" unicode="f" horiz-adv-x="178" 
d="M-38 475q8 12 10 26t1 28q-1 11 5 17.5t16 6.5q8 0 15 -7q2 -4 9 -6q11 -3 12.5 -0.5t-0.5 13.5q-2 19 -4 37.5t3 38.5q15 68 82 90q20 7 40 12.5t40 7.5q24 3 45 -3q14 -4 19 -14.5t7 -22.5q2 -14 0 -28t-5 -28q-3 -17 -21 -17q-14 0 -20 14q-6 16 -23 11
q-40 -11 -56 -53q-12 -30 -15.5 -61.5t-1.5 -63.5q3 -57 6 -115t5 -116q2 -41 9 -80t16 -77q3 -13 6 -25t1 -25q0 -14 -8 -21.5t-22 -6.5q-18 1 -38 6q-13 3 -27 0q-6 -2 -12.5 -3t-12.5 -1q-15 -1 -23 8t-5 23q14 69 17.5 139t7.5 140l2 58l2 58q0 13 -11 9l-39 -9
q-8 -2 -16.5 -1.5t-14.5 8.5q-7 8 -6.5 16.5t5.5 16.5zM154 460q1 18 1.5 37t0.5 38q0 11 11 11q8 1 15.5 1.5t14.5 -1.5h6q20 0 25.5 -5.5t7.5 -26.5q1 -10 2.5 -20.5t2.5 -21.5q2 -33 -33 -28q-11 2 -21.5 5.5t-22.5 1.5q-3 -2 -7 0t-3 9z" />
    <glyph glyph-name="z" unicode="z" horiz-adv-x="377" 
d="M22 86q35 42 65 86.5t61 89.5q14 21 28.5 42.5t33.5 40.5q5 5 3.5 7t-6.5 4q-14 6 -27.5 8t-26.5 2q-10 0 -23.5 -1.5t-27 -5.5t-25 -10.5t-17.5 -15.5q-2 -4 -6 -6.5t-9 -0.5q-12 3 -13 14q-2 14 -3.5 28t-3.5 28q-3 20 12 33q10 9 20.5 16t19.5 15q3 2 6 1.5t5 -0.5
q42 -2 82 -5t81 -5q18 -2 35.5 -7t34.5 -13q35 -17 13 -49q-9 -13 -24 -28q-51 -51 -94 -112t-64 -132q-3 -10 -2 -11.5t11 -1.5q2 1 5 0.5t8 -0.5q23 -1 48 -3t49 -8q37 -9 73 3q6 2 10 2q16 2 11 -14q-5 -14 -10.5 -28t-11.5 -27q-8 -16 -20.5 -23t-29.5 -7q-28 1 -56 4.5
t-56 5.5q-17 2 -33 3t-33 1q-8 -2 -12 -5q-12 -10 -26 -4q-9 4 -19 6.5t-19 6.5q-23 10 -28.5 33.5t11.5 42.5z" />
    <glyph glyph-name="x" unicode="x" horiz-adv-x="423" 
d="M-11 20q2 0 2 2q28 23 47.5 53t41.5 59q17 22 32.5 44t30.5 45q5 8 0 15q-31 39 -55 82.5t-48 87.5q-4 7 -10 13t-13 11t-7 12q3 8 11 11q11 4 18 0q12 -3 24 -3.5t25 1.5q23 3 39 -6.5t27 -29.5q15 -26 27.5 -51.5t24.5 -52.5q8 11 14 21l12 20q13 21 26.5 42t27.5 43
q8 10 0 19q-5 5 -2 10t11 6q18 2 34.5 -1t33.5 -8q8 -2 15 -3t15 -3q3 -1 6.5 -1.5t7.5 -2.5q13 -7 2 -17q-29 -24 -47 -55t-38 -61q-14 -22 -28.5 -43.5t-33.5 -40.5q-16 -16 -28.5 -33t-25.5 -35q-14 -20 -23 -42.5t-19 -44.5q-8 -17 -14 -33t-13 -32q-8 -17 -15.5 -21
t-23.5 0q-21 5 -41.5 5t-40.5 -3h-20q-9 1 -12 7t3 14zM216 134q9 20 24 35t29 31q2 4 3.5 1.5t2.5 -4.5q8 -16 19 -29t21 -28q17 -26 35.5 -50t37.5 -49q6 -7 12 -13t14 -11q5 -3 6 -7.5t0 -9.5t-5 -6.5t-9 -1.5q-14 2 -27.5 3.5t-30.5 0.5q-11 -2 -24.5 2t-28.5 6
q-22 6 -32 26q-11 21 -22 42.5t-25 41.5q-4 5 -3 10t3 10z" />
    <glyph glyph-name="w" unicode="w" horiz-adv-x="514" 
d="M-27 451q4 8 10 5q21 -6 41 -3.5t40 5.5q6 0 12 0.5t12 -0.5q23 0 24 -22v-28q-2 -57 2.5 -112t9.5 -110q2 -20 4.5 -39.5t10.5 -39.5q4 11 7 20t7 18q23 74 34 142.5t11 145.5q0 5 -2 7q-5 5 -3 8t5 8q8 11 16.5 10.5t18.5 -2.5q16 -4 31 -6t31 0q25 4 32.5 -4t7.5 -32
q0 -30 -1 -60t3 -60q5 -38 6 -76t6 -76q2 -11 4.5 -21t7.5 -21q30 80 43.5 159.5t15.5 164.5v9.5t2 9.5q3 11 7.5 14.5t15.5 1.5q19 -5 37 -8.5t37 -4.5q9 -1 21 -8q7 -5 4 -17q-25 -88 -57.5 -172t-64.5 -170q-7 -18 -12 -36t-3 -38q1 -12 -13 -12q-9 0 -18 0.5t-19 1.5
q-8 0 -16 0.5t-16 -3.5t-14 5q-12 13 -15 32q-11 45 -21 90t-21 90q-2 0 -2 1q-4 -9 -6.5 -17.5t-6.5 -17.5q-12 -29 -22.5 -57t-21.5 -57q-5 -14 -8.5 -27t-0.5 -27t-13 -14h-23t-22 2q-12 2 -23 -3q-9 -4 -16 5q-11 13 -14 27q-13 63 -28.5 125t-27.5 126q-6 28 -9 56
t-11 55q-4 14 -8.5 26t-15.5 21q-7 3 -2 10z" />
    <glyph glyph-name="v" unicode="v" horiz-adv-x="289" 
d="M-30 457q4 6 10 4q21 -5 41.5 -3t40.5 4q5 2 11 2h11q25 -1 26 -27v-19q-2 -45 1.5 -89t6.5 -89q2 -25 3 -49.5t6 -48.5q3 -16 10 -30q29 79 43 159t16 165q0 5 0.5 10.5t1.5 10.5q3 19 22 15t37.5 -8t37.5 -5q11 -2 22 -8q7 -6 3 -17q-29 -88 -59.5 -173.5t-63.5 -171.5
q-7 -17 -11.5 -34t-2.5 -37q1 -12 -13 -12q-11 0 -21.5 0.5t-21.5 1.5q-13 0 -25 -3q-8 -2 -15 5q-11 11 -14 27q-13 65 -28.5 128.5t-29.5 128.5q-5 26 -8 51.5t-10 50.5q-4 14 -8.5 27t-16.5 23q-6 3 -2 11z" />
    <glyph glyph-name="u" unicode="u" horiz-adv-x="386" 
d="M11 453q4 7 13.5 13.5t17.5 5.5q11 -2 21 -1t21 3h27t26 -2q19 -3 26 -17.5t-6 -31.5q-12 -15 -16 -32.5t-7 -35.5q-8 -46 -11.5 -92t-1.5 -94q1 -18 3 -35t7 -34q8 -24 21 -24q7 0 21 8q27 17 44.5 41t22.5 56q8 45 7.5 90t-2.5 90q-1 15 -5.5 28.5t-12.5 27.5
q-5 10 -4.5 19.5t5.5 18.5q4 13 21 13q14 1 27.5 -1t27.5 -2q11 1 20.5 2t19.5 4q11 3 20 -4.5t11 -20.5q2 -11 -1 -21t-7 -20q-36 -92 -34 -193q0 -43 3 -85.5t6 -85.5q2 -20 -7 -27t-23 -5q-17 2 -33 2t-32 3t-22 10.5t-6 23.5q-15 -12 -31 -21t-34 -14q-36 -8 -66.5 9
t-41.5 52q-11 34 -13.5 69t-0.5 70q2 40 4.5 80t0.5 80q0 9 -1.5 17.5t-3.5 17.5q0 6 -3 10t-8 8q-6 5 -9.5 11.5t-0.5 15.5z" />
    <glyph glyph-name="one" unicode="1" horiz-adv-x="291" 
d="M-29 525q19 43 52 79q0 1 4.5 10.5t9.5 10.5q9 2 17.5 6t18.5 2q19 -3 37.5 -5t38.5 -1q16 1 31 1.5t30 2.5q6 1 12 0t9 -7t-1 -11t-8 -9q-11 -11 -16.5 -24.5t-7.5 -27.5q-5 -46 -6 -92t1 -92q1 -23 3.5 -44.5t4.5 -44.5q7 -65 14.5 -122t26.5 -120q2 -8 3.5 -15.5
t-5.5 -13.5q-9 -7 -20 -4q-13 4 -26 5t-27 1q-14 -1 -28 0.5t-28 -0.5q-7 -2 -13.5 -2t-14.5 -2h-15q-14 0 -12 14q0 9 3.5 16t5.5 15q6 20 8.5 40.5t2.5 40.5q-1 40 -1.5 79t1.5 78q2 20 2 40v40q0 35 -2.5 69.5t-4.5 69.5v8.5t-5 5.5q-4 2 -7 -2t-6 -7q-5 -5 -8.5 -11
t-7.5 -11q-6 -9 -11.5 -9.5t-14.5 4.5q-7 4 -14.5 7t-15.5 8t-11 10.5t1 13.5z" />
    <glyph glyph-name="two" unicode="2" horiz-adv-x="469" 
d="M60 160q34 42 65.5 83.5t63.5 84.5q17 23 33 47.5t25 52.5q8 22 7 43.5t-7 44.5q-2 9 -16.5 16.5t-26.5 5.5q-37 -5 -67 -24t-52 -48q-2 -3 -5 -6.5t-8 -1.5t-6 5.5t-1 7.5q-4 15 -11 27.5t-23 21.5q-5 3 -5 15t5 18q32 43 82 69.5t104 26.5q39 0 83 -14q25 -8 42 -24
t27.5 -35.5t15 -40.5t3.5 -40q-1 -40 -12.5 -77.5t-29 -73t-39.5 -68t-46 -64.5q-21 -28 -43 -55.5t-47 -52.5q-7 -16 11 -15q29 2 57.5 4.5t57.5 2.5q16 0 31.5 3t32.5 -1q14 -3 28.5 -5t28.5 0q6 0 6 -5q-9 -33 8 -66q1 -2 3 -8q1 -1 0.5 -1.5t0.5 -1.5q-27 -5 -53.5 -4.5
t-52.5 1.5q-20 1 -41 0t-41 -2q-35 -2 -70.5 -4t-70.5 6q-11 2 -20.5 2t-20.5 -1q-16 0 -24.5 14.5t-10.5 28.5q-10 60 29 108z" />
    <glyph glyph-name="three" unicode="3" horiz-adv-x="469" 
d="M38 96q11 4 22 4.5t22 2.5q27 4 54.5 6t54.5 7q44 9 79 37q10 9 17 19t9 24q3 20 -7 37t-29 25q-22 12 -47 18q-16 5 -32 6t-33 1q-8 -2 -13 -2q-14 0 -18.5 3.5t-5.5 17.5q-1 9 -1 17.5t-1 17.5q0 12 9 17q25 15 46 34.5t38 42.5q10 13 18 27t7 31q-2 14 -12.5 26
t-24.5 14q-23 2 -46 0l-46 -4q-7 -1 -12 -5l-10 -8q-3 -2 -6.5 -4.5t-8.5 -0.5t-4.5 6.5t1.5 8.5q3 14 4 26.5t-3 25.5q-3 11 2 17t14 6q16 2 31 5l30 6q23 5 45 8t45 3q21 0 43.5 -5t41.5 -15.5t31.5 -27.5t15.5 -41q3 -33 -5 -62.5t-25 -57.5q-11 -17 -24.5 -30.5
t-30.5 -26.5q36 -6 68 -22q2 -1 3 -0.5t2 -0.5q26 -16 46 -36.5t29 -51.5q21 -73 -25 -136q-32 -43 -71 -69.5t-93 -35.5q-44 -5 -87 -2t-87 9q-5 1 -11 0.5t-11 6.5q-4 6 -0.5 11t4.5 11q2 12 0.5 23.5t-7.5 22.5q-5 10 5 13z" />
    <glyph glyph-name="four" unicode="4" horiz-adv-x="509" 
d="M49 320q16 25 34.5 47t38.5 43q28 34 54.5 68t52.5 69q14 20 32 36.5t32 36.5q4 5 9.5 5t10.5 1q17 2 34 8.5t34 9.5t18 -14q0 -14 -0.5 -26.5t0.5 -26.5q1 -44 3 -87t4 -87q1 -26 1.5 -52t0.5 -52q0 -10 8 -10q7 -1 12.5 -1.5t12.5 1.5q13 3 16 -9q4 -14 5.5 -28.5
t-9.5 -27.5q-6 -7 -6 -17q0 -9 -2 -11t-10 1q-6 2 -12 2t-11 -1q-4 0 -3.5 -2t0.5 -4q-1 -18 -1 -36v-35q-2 -24 -2 -48t-2 -48v-6.5t3 -5.5q7 -4 2 -9q-3 -3 -9 -2q-8 2 -15.5 6t-15.5 5q-8 0 -14.5 -1t-13.5 -3q-10 -2 -20 -5t-21 -3q-14 2 -12 14q2 17 4 33t3 33
q2 27 2 54t1 54q0 6 -3 6h-7l-40 -2t-40 -3q-27 -2 -53.5 0t-53.5 4q-17 2 -33 4t-33 1q-7 0 -12 1q-8 0 -10 3.5t-3 11.5q-3 32 10 57t29 48zM173 290q26 2 52.5 2.5t52.5 -1.5q6 0 13 2t7 10q0 47 -0.5 93t0.5 94q-5 -8 -10.5 -15.5t-10.5 -15.5q-23 -32 -47 -63t-47 -63
q-5 -8 -9.5 -15.5t-6.5 -15.5q-1 -4 -1 -8.5t7 -3.5z" />
    <glyph glyph-name="five" unicode="5" horiz-adv-x="446" 
d="M54 69q17 13 29.5 29t23.5 34q3 5 5 3t4 -3q20 -7 38 -15.5t40 -7.5q18 2 35 6t32 15q16 12 26 29t11 35t-8 36t-31 32q-38 24 -82 29q-26 3 -50.5 5t-50.5 1q-6 0 -10 5.5t-6 12.5t-3 15t-1 12q-1 11 -0.5 22.5t0.5 22.5h-2q2 28 3.5 56t3.5 57q1 14 1.5 28t1.5 28
q0 18 2 36l4 36q1 9 13 20t23 13q26 2 52 2.5t52 -4.5q13 -2 25.5 0.5t25.5 2.5q28 1 55 -1.5t50 -16.5q7 -4 4 -11q-12 -25 -15 -54q-1 -10 -12 -8q-43 9 -88 9q-20 0 -39 -1.5t-39 -3.5q-7 -1 -8 -4.5t-1 -8.5q-1 -11 -2 -21.5t-2 -21.5q-2 -26 -3 -53t-3 -54
q-1 -11 1 -12t12 -1q56 0 104.5 -17.5t86.5 -59.5q20 -21 30.5 -47t16.5 -54q13 -63 -14 -126q-12 -27 -32.5 -45t-46 -29t-53.5 -15.5t-55 -4.5q-15 0 -37 4.5t-44 12t-42 17.5t-31 21q-4 4 -4.5 6.5t4.5 6.5z" />
    <glyph glyph-name="six" unicode="6" horiz-adv-x="537" 
d="M52 244q0 91 23 167.5t71 145.5q29 42 71.5 70t94.5 28q42 0 79.5 -18t60.5 -47q28 -35 23 -78q0 -4 -2 -10t-8 -11.5t-13.5 -9t-15 -5t-13.5 1.5q-2 1 -7 1q-20 3 -26 24q-4 8 -4 17t-2 18q-9 51 -59 51q-15 0 -29.5 -9t-27.5 -22t-23.5 -27.5t-16.5 -26.5
q-10 -19 -19 -37.5t-18 -37.5q-8 -16 -9.5 -33t-3.5 -34q0 -13 11 -8q69 29 142 23q26 -2 52 -9.5t47.5 -21.5t36 -35t18.5 -50q6 -45 -7.5 -83.5t-42.5 -70.5q-41 -46 -87.5 -72.5t-108.5 -26.5q-37 0 -66.5 13t-51.5 35t-37 52t-24 63q-5 21 -7.5 40t-0.5 33zM168 144
q2 -14 10 -28t19 -25t25 -17.5t29 -6.5q27 3 48.5 18.5t38 37.5t29 47t21.5 47q7 17 0 36t-22 30q-14 11 -30.5 13.5t-33.5 2.5q-23 0 -44 -3.5t-41 -14.5q-23 -13 -38 -31.5t-18 -44.5q-1 -15 2 -30.5t5 -30.5z" />
    <glyph glyph-name="seven" unicode="7" horiz-adv-x="345" 
d="M28 549q8 11 12 23.5t6 25.5q1 5 4 9t-3 9q1 0 1.5 1t2.5 1q2 1 5.5 2t6.5 1q23 -2 47 1.5t47 8.5q19 4 38 5t39 2q21 1 42.5 0.5t42.5 -0.5q29 0 40 -15.5t6 -41.5q-5 -22 -14 -42t-18 -41q-16 -38 -31.5 -75.5t-29.5 -76.5q-4 -8 -3 -9.5t10 -1.5q12 0 26 -7
q8 -5 14.5 -11.5t5.5 -17.5q-1 -22 -24 -32q-11 -5 -22.5 -4.5t-23.5 3.5q-13 3 -16 -9q-14 -42 -28.5 -83t-25.5 -84q-4 -15 -6 -31l-4 -32q-2 -5 0 -10.5t0 -10.5t-3.5 -6.5t-6.5 0.5q-11 3 -21 2t-21 -1h-18q-32 0 -28 33q1 14 4.5 27.5t7.5 27.5q13 46 28.5 90t26.5 89
q2 6 1.5 8.5t-8.5 2.5q-7 1 -14 1.5t-14 4.5q-22 8 -20 27q1 12 9 19.5t19.5 11.5t23.5 5t22 1q7 0 9 5q20 49 37 98.5t37 99.5v3q-22 -2 -42.5 -2.5t-40.5 -2.5q-27 -4 -54.5 -8t-55.5 -6q-6 0 -11.5 0.5t-10.5 3.5t-3 9z" />
    <glyph glyph-name="eight" unicode="8" horiz-adv-x="391" 
d="M119 349l3 3q-24 18 -46 45q-20 23 -27.5 50.5t-5.5 58.5q1 33 13 59t32.5 45.5t47.5 32t57 17.5q34 6 65.5 0.5t59.5 -27.5q52 -40 43 -109q-3 -26 -15 -50.5t-28.5 -46.5t-36.5 -41.5t-39 -36.5q11 -11 22 -20t20 -20q23 -27 40 -56.5t28 -62.5q13 -41 2 -77t-43 -65
q-50 -48 -122 -49q-32 -1 -61 6.5t-54 28.5q-53 44 -59 110q-6 67 21.5 117.5t82.5 87.5zM175 43l14 -3.5t12 -1.5q17 0 30 10t21 25t12.5 32t4.5 31v7q-6 46 -39 82q-14 15 -28.5 30t-28.5 29q-4 4 -7 -1q-20 -31 -35.5 -62t-21.5 -67q-3 -17 0.5 -34.5t12.5 -32.5
t22.5 -26.5t30.5 -17.5zM173 411q4 -7 11 -1q19 23 37 45.5t36 45.5q20 25 14.5 54t-25.5 46q-14 11 -29 11q-18 0 -32 -15q-19 -20 -28.5 -44t-11.5 -52q3 -23 8.5 -46t19.5 -44z" />
    <glyph glyph-name="nine" unicode="9" 
d="M61 557q42 48 87.5 73t108.5 25q37 0 66.5 -12.5t52 -34.5t37.5 -52t23 -64q5 -20 7.5 -39t0.5 -33q0 -91 -23.5 -167t-70.5 -145q-29 -42 -71.5 -70.5t-95.5 -28.5q-41 0 -78.5 17.5t-60.5 47.5q-27 35 -23 78q0 4 2 10t8 11.5t13.5 9t15 5t13.5 -1.5q2 -1 3.5 -1
t3.5 -1q11 -1 16.5 -6.5t9.5 -15.5q4 -9 4 -18t2 -17q5 -25 19 -39t39 -14q15 0 30 9t28 22.5t23.5 28t16.5 26.5q10 18 19 36.5t18 38.5q8 16 9.5 33t3.5 34q0 13 -11 8q-69 -29 -142 -23q-27 2 -53 9.5t-47 21t-35.5 34.5t-18.5 51q-6 45 7.5 83t42.5 71zM129 381
q15 -11 31.5 -13.5t33.5 -2.5q23 0 46.5 5t43.5 16.5t34 29.5t17 44q1 14 -2 29.5t-5 29.5q-5 31 -25 52t-48 26h-10q-27 -3 -48.5 -18.5t-38.5 -37.5t-29 -47t-21 -47q-7 -17 0 -36t21 -30z" />
    <glyph glyph-name="zero" unicode="0" horiz-adv-x="434" 
d="M26 271q1 8 0.5 15.5t-0.5 15.5q0 45 7.5 93.5t24 94.5t43 86.5t63.5 69.5q13 10 27.5 15.5t31.5 3.5q9 0 13 -3q13 -8 27.5 -13t28.5 -12q50 -23 77 -62.5t39 -90.5q10 -41 10.5 -80.5t-2.5 -80.5q-2 -29 -6.5 -63t-13.5 -68.5t-23 -67t-34.5 -57t-48.5 -39.5t-66 -15
q-49 0 -86 24t-62 61.5t-37.5 83.5t-12.5 89zM138 332q-2 -23 0.5 -44.5t5.5 -42.5q2 -16 6 -43t12.5 -53.5t23.5 -46t37 -19.5q19 0 32 22q3 4 5 7.5t4 8.5q11 22 16.5 45.5t10.5 46.5q11 47 20 92.5t9 92.5q0 56 -14 105.5t-59 85.5q-8 6 -13 7t-13 -4q-17 -10 -27 -26.5
t-18 -34.5q-41 -97 -38 -199z" />
    <glyph glyph-name="percent" unicode="%" horiz-adv-x="700" 
d="M157 20q3 13 7 25.5t10 24.5q34 69 68 136t72 133t71 134t65 136q2 3 4 9q5 15 17 15q8 0 12.5 -4.5t9.5 -10.5q11 -7 19 -7q12 1 23 2.5t22 9.5q5 4 11.5 4.5t11.5 -4.5q11 -8 4 -24q-24 -52 -51 -105q-47 -91 -94.5 -179.5t-92.5 -180.5q-24 -51 -33 -108
q-2 -5 -3 -9.5t-6 -8.5q-11 -10 -22 1q-8 8 -17 11t-18 3q-8 0 -16.5 -1.5t-16.5 -3.5t-15 -6.5t-14 -8.5q-12 -7 -20 -1q-9 6 -8 18zM304 512q-4 -46 -21 -86t-55 -68q-33 -23 -69 -23q-40 0 -70.5 26t-36.5 67q-8 48 4.5 91.5t41.5 83.5q15 18 28 30q20 18 43 11
q4 -1 7.5 -0.5t7.5 0.5q32 3 55 -11.5t40 -37.5q25 -37 25 -83zM239 551q-2 18 -6 33t-24 22q-2 0 -2 0.5t-2 1.5q-5 2 -8 5t-7 3q-7 0 -14 -10q-23 -32 -38.5 -67t-23.5 -73q-3 -14 -4.5 -27.5t3.5 -27.5q5 -13 13.5 -21t21.5 -10q12 -2 20 4t15 14q10 13 20 32.5
t17.5 41.5t12.5 43t6 36zM421 118q-1 27 8 57q29 89 97 153q4 3 7.5 6t8.5 5q26 9 34 -16q0 -6 5 -10q20 -10 35 -29.5t24 -43.5t10.5 -50.5t-4.5 -52.5q-6 -24 -16.5 -47t-26.5 -41.5t-37.5 -30t-48.5 -11.5q-43 0 -68 27t-28 69q-1 4 -0.5 7.5t0.5 7.5zM587 212
q2 29 -2 43t-18 28q-7 7 -14 7q-5 0 -13 -6q-13 -10 -23 -26t-17 -33.5t-12 -36t-9 -33.5q-5 -20 -6 -39t6 -38q6 -22 29 -27q11 -2 19 3t14 13q23 32 32 69.5t14 75.5z" />
    <glyph glyph-name="Euro" unicode="&#x20ac;" horiz-adv-x="542" 
d="M51 394q17 2 33.5 6t33.5 6q10 1 14 5t7 13q12 36 28.5 69t42.5 61q75 79 181 75q18 -1 35 -7t31 -20q4 -4 9 -6t9 -5q17 -9 9 -25q-2 -3 0 -8q3 -8 1.5 -18.5t-6 -20t-11.5 -18t-15 -12.5q-13 -7 -28 8q-5 5 -9 15q-5 12 -17.5 18.5t-26.5 6.5q-18 0 -33.5 -13.5
t-27 -33t-19.5 -41t-11 -36.5q-1 -6 5 -6q19 -2 35 -6q12 -3 15.5 -8.5t3.5 -17.5q0 -2 2 -8q4 -11 -4 -17.5t-19 -3.5q-12 4 -24.5 2.5t-24.5 -1.5q-3 1 -4 -1t-1 -4q-2 -17 -3.5 -32.5t-4.5 -32.5q-1 -5 1 -5.5t6 -0.5q13 -1 25 -1t25 -2q5 -2 8.5 -2t7.5 -2
q11 -5 12 -14.5t-8 -17.5q-14 -14 -31.5 -16.5t-35.5 -3.5q-11 0 -7 -10q8 -38 23.5 -59t50.5 -41q13 -7 28 -7q16 0 32 6q8 3 16 7l16 8t15.5 6.5t13.5 2.5q25 0 37 -30q2 -4 4.5 -7.5t4.5 -7.5q5 -8 1 -18t-13 -18q-33 -28 -76 -39t-85 -11q-25 2 -51 5t-51 16
q-48 27 -77.5 65.5t-37.5 93.5q-2 14 -7 17.5t-18 -1.5q-18 -7 -25.5 -1t-15.5 22q-7 13 -2 23t20 15q9 4 18.5 5t19.5 3q7 1 7 8q2 19 5 36.5t6 36.5q1 5 0 5.5t-6 0.5q-11 -1 -22.5 -1.5t-22.5 -1.5q-14 0 -27 3.5t-13 23.5q1 23 23 26z" />
    <glyph glyph-name="dollar" unicode="$" 
d="M44 209q7 7 14 3q17 -9 35.5 -10t36.5 1q8 1 16 1.5t16 2.5q11 1 17 -7t3 -19q-2 -8 -4.5 -16t-4.5 -16q-4 -15 3 -31t21 -21q2 4 2 8v7q-1 11 4.5 19.5t13.5 14.5q5 5 12 5q8 0 13 -5.5t7.5 -13.5t4 -16.5t1.5 -14.5q1 -2 1 -5t2 -4q5 -1 10 4q10 10 12.5 21t6.5 23
q2 8 1 15.5t-4 15.5q-9 25 -24.5 43.5t-34.5 37.5q-20 20 -40.5 37.5t-40.5 35.5q-10 9 -20 22t-20 28t-18 30.5t-14 28.5q-19 44 -9 87q5 19 11 35.5t14 31t20 26.5t30 21q18 10 36.5 19t38.5 13q7 1 7 8q1 14 1.5 29t-2.5 29q-2 11 5.5 18.5t18.5 2.5q4 -2 7 0
q12 6 19.5 -0.5t7.5 -19.5v-27t-2 -27q-2 -11 9 -12q19 -2 34 -14t29 -23q29 -23 42.5 -53.5t16.5 -65.5q1 -19 -14 -34q-7 -7 -12.5 -13.5t-11.5 -13.5q-13 -14 -28.5 -18t-32.5 -2q-13 1 -26 8q-8 4 -8.5 10.5t5.5 12.5q9 9 13 20.5t4 24t-4.5 24.5t-12.5 20q-2 3 -3.5 6
t-5.5 2q-3 -1 -2.5 -4.5t0.5 -7.5q-2 -17 -4.5 -34t-7.5 -34q-1 -5 -2.5 -9t-3.5 -8q-6 -13 -21 -9q-2 0 -3 0.5t-3 0.5q-12 2 -17 7t-5 18l2 26t3 26q0 6 0.5 12t1.5 12q0 2 0.5 3.5t-1.5 3.5q-3 1 -7 -3q-11 -11 -19 -20.5t-10 -24.5q-2 -14 -1 -28t4 -29q2 -8 6 -14
q16 -14 30 -30t32 -29q5 -4 11 -7t12 -7q17 -11 34 -20t32 -21q39 -32 59 -72t18 -91q-1 -16 -3 -31.5t-5 -30.5q-4 -14 -10.5 -24.5t-15.5 -20.5q-11 -14 -23.5 -24.5t-29.5 -16.5q-7 -2 -12.5 -6t-12.5 -6q-8 -4 -16.5 -5.5t-18.5 -3.5q-7 -1 -7 -7q-1 -19 -4 -37.5
t-6 -37.5q-3 -17 -17 -19q-13 0 -19 17t-7 35t-3 36q-1 7 -3 9.5t-10 2.5q-22 0 -41.5 12t-35.5 30t-29 38.5t-22 37.5q-16 28 -20 57q-1 11 -1 20.5t9 17.5z" />
    <glyph glyph-name="cent" unicode="&#xa2;" horiz-adv-x="516" 
d="M41 284q5 51 14 98.5t25.5 91t43.5 83t68 73.5q30 26 69 32q10 1 10 11q2 11 2.5 21.5t2.5 21.5q3 25 26 24q13 0 19 -12t8 -25t1 -26q-3 -13 11 -17q90 -27 123 -115q5 -12 6.5 -24t-1.5 -25q-5 -22 -26 -20q-20 1 -43 -7q-12 -3 -24.5 -3t-24.5 6q-24 12 -12 35
q5 9 8.5 19t5.5 21q4 28 -12 54q-2 3 -5 6q-6 6 -9 5q-2 -1 -2 -8q-2 -17 -9.5 -29t-24.5 -17q-24 -6 -27 18q-1 7 -0.5 13t0.5 14q-12 -7 -22 -20t-17 -29t-11.5 -32t-6.5 -29q-10 -52 -16 -104t-1 -106q2 -28 3 -55.5t9 -55.5q8 -26 18.5 -52.5t34.5 -42.5q1 3 2 5l2 4
q2 5 6.5 8t9.5 1q10 -3 19 -8t12 -17q3 -9 12 -5q26 11 35.5 39t9.5 54q1 12 -2 22.5t-12 18.5q-17 15 4 25q8 4 16.5 3t16.5 -2q14 -3 26.5 -2t25.5 3q24 5 34 -6.5t2 -34.5q-2 -7 -7.5 -11t-7.5 -10q-6 -16 -13.5 -30t-15.5 -28q-38 -72 -113 -94q-10 -3 -10 -13
q-1 -17 -2 -34.5t-1 -34.5q0 -22 -17 -25q-16 -4 -26 15q-7 13 -7 26t1 27q2 19 -0.5 22.5t-19.5 6.5q-58 10 -96 42.5t-67 80.5q-22 37 -28.5 77t-2.5 82z" />
    <glyph glyph-name="sterling" unicode="&#xa3;" horiz-adv-x="465" 
d="M50 316q14 3 28 3.5t28 -1.5q11 0 11 12q2 38 2 75t2 75q2 23 4.5 45t10.5 44q18 42 50.5 68.5t79.5 26.5q58 0 95 -54q25 -31 15 -67q-3 -10 -9 -19q-8 -8 -16 -8q-11 0 -19 14q-4 13 -6 29q0 5 -3 12.5t-8 14.5t-11 12t-12 5q-7 0 -14 -9.5t-13 -22.5t-10 -25.5
t-5 -17.5q-8 -38 -12 -76t-8 -77q-1 -8 -1 -15.5t-1 -15.5q-1 -10 10 -9q19 2 38 3t39 2h5.5t5.5 -1q9 -3 13 -11t-2 -16q-8 -11 -18 -18.5t-26 -6.5q-15 1 -29 0t-28 -3q-10 -1 -10 -11q0 -21 0.5 -42t1.5 -42q2 -24 2.5 -48.5t3.5 -49.5q1 -11 11 -11q38 0 74.5 -1.5
t74.5 -6.5q11 -2 21.5 -4t19.5 -8q17 -10 10 -30q-4 -11 -11.5 -18t-15.5 -5q-9 3 -17.5 3.5t-17.5 1.5q-26 2 -50.5 6.5t-49.5 6.5q-79 5 -153 -7q-10 -2 -19 -5t-18 -5q-19 -4 -27 10q-4 7 -1 16t10 14q5 4 11.5 6t12.5 4q9 3 9 11q3 19 5 37.5t2 38.5v111q0 4 -1 6t-7 1
q-9 -2 -18 -3t-18 -1q-19 -1 -28 9.5t-11 28.5q-1 14 18 19z" />
    <glyph glyph-name="yen" unicode="&#xa5;" horiz-adv-x="579" 
d="M122 177q4 12 18 14h41v2h40q8 0 8 7v5q1 8 2 12t-0.5 6t-5.5 1.5t-14 -1.5q-13 -1 -25.5 -1.5t-24.5 -2.5q-9 -2 -15.5 1.5t-13.5 7.5q-8 5 -8 12t6 13q8 8 21 8q20 -2 38.5 0.5t37.5 4.5q9 0 8 8q0 8 0.5 15.5t0.5 15.5q-3 19 3 34t18 29q23 25 40.5 53t32.5 57
q11 22 17.5 45t1.5 48q-2 13 -7 23.5t-11 21.5l-6 8t-6 9t-4.5 10.5t1.5 10.5q3 6 8.5 7.5t10.5 1.5q11 -2 20.5 -2.5t19.5 -2.5q20 -3 40.5 -5.5t41.5 -2.5q24 0 48 6q6 2 12 1.5t12 0.5h11t10 -7t2 -15t-5 -14q-2 -4 -4 -4q-30 -23 -59 -57t-55.5 -72.5t-49.5 -78
t-41 -73.5q-4 -4 -2 -11q2 -10 1 -19t0 -19q1 -11 2 -12.5t12 -0.5q12 0 24 0.5t24 0.5t17 -4t7 -15q0 -2 1 -3.5t1 -2.5q5 -11 0.5 -18t-15.5 -9q-15 -1 -29.5 0.5t-29.5 2.5q-7 0 -9 -1.5t-2 -9.5q1 -9 1.5 -14.5t3 -7.5t7.5 -3t14 -1q7 0 13 -0.5t13 -1.5q6 0 11.5 -3
t7.5 -9q2 -5 8 -5q13 -1 16 -14q0 -11 -8 -16t-17 -5q-13 1 -26 1t-25 1q-9 0 -8 -8q3 -19 7.5 -38t15.5 -36q4 -6 4 -9q5 -13 -1.5 -22t-20.5 -8q-20 2 -40.5 2t-41.5 1q-32 1 -69 -5q-5 0 -9 -0.5t-8 1.5q-11 5 -13 13t6 15q11 9 16.5 19.5t9 22t6 23.5t6.5 23
q2 5 -0.5 5.5t-5.5 0.5q-13 -2 -25.5 -2h-25.5q-11 1 -15 4t-8 13q0 3 -5 5q-14 5 -12 19zM30 637q0 24 22 21q14 -2 26.5 -3t25.5 -3q29 -4 57.5 0t57.5 7q8 2 14.5 2.5t14.5 1.5q14 0 19 -9q3 -5 1.5 -10.5t-4.5 -10.5q-4 -7 -8.5 -13t-7.5 -13q-13 -22 -15 -44.5t5 -47.5
q12 -44 41 -81q7 -8 0 -15q-11 -16 -21 -32t-21 -33q-19 32 -36.5 62t-36.5 59q-16 25 -29 43.5t-26.5 34.5t-29.5 31.5t-39 33.5q-9 7 -10 19z" />
    <glyph glyph-name="period" unicode="." horiz-adv-x="179" 
d="M48 46q2 16 13 33.5t30 17.5t29.5 -14t10.5 -31q0 -19 -11 -35q-17 -25 -46 -14q-12 5 -20 17.5t-6 25.5z" />
    <glyph glyph-name="comma" unicode="," horiz-adv-x="162" 
d="M89 -44q-9 -11 -21 -2q-13 8 -7 21q2 5 4 9.5t4 10.5q0 5 -5 5q-44 5 -33 46q2 5 3 9t3 8q5 14 17 19.5t24 2.5q30 -8 33 -37q0 -20 -4.5 -48t-17.5 -44z" />
    <glyph glyph-name="colon" unicode=":" horiz-adv-x="162" 
d="M85 389q17 0 27.5 -11t10.5 -28q0 -19 -13.5 -33t-32.5 -14q-14 -1 -23.5 10t-9.5 26q1 21 12.5 35.5t28.5 14.5zM85 210q12 0 23 -14q14 -16 8.5 -34t-16.5 -29t-25 -11q-22 0 -27 25q-1 5 -3 13q2 16 11.5 33t28.5 17z" />
    <glyph glyph-name="semicolon" unicode=";" horiz-adv-x="151" 
d="M27 342q3 14 12 29t26 15q10 0 19 -9q3 -3 4 -3q25 -16 18 -44q-4 -14 -15.5 -23.5t-25.5 -9.5q-17 0 -29 14t-9 31zM71 202q19 -7 23 -26q1 -8 2.5 -15t0.5 -15q0 -21 -8 -37q-4 -8 -10.5 -11t-12.5 0q-14 7 -9 24q0 2 0.5 3t0.5 3q2 5 1.5 8.5t-8.5 4.5
q-11 1 -17.5 10.5t-6.5 20.5q-1 20 11.5 28.5t32.5 1.5z" />
    <glyph glyph-name="hyphen" unicode="-" horiz-adv-x="265" 
d="M69 254q5 2 11.5 2.5t12.5 0.5h41q12 -3 24.5 -3.5t24.5 -0.5q15 1 20 -13q2 -8 -2 -16.5t-9 -11.5q-7 -4 -18 -4q-23 -1 -45 -1.5t-45 1.5q-8 0 -13 2q-9 2 -12.5 7t-3.5 17q-1 14 14 20z" />
    <glyph glyph-name="endash" unicode="&#x2013;" horiz-adv-x="398" 
d="M74 327q10 6 21 8t22 2q19 -1 37 -0.5t36 0.5q54 3 107 0q10 -2 14 -4q5 -2 9.5 -5.5t10.5 -5.5q8 -3 8 -15q0 -7 -4.5 -11t-11.5 -6t-14 -2.5t-12 -0.5q-26 2 -50.5 0.5t-49.5 -3.5q-31 -3 -62 -3q-14 0 -27 0.5t-27 1.5q-20 0 -22 15q-1 6 4.5 16t10.5 13z" />
    <glyph glyph-name="emdash" unicode="&#x2014;" horiz-adv-x="413" 
d="M77 334q26 6 53 6q39 -1 77.5 2t77.5 2h16.5t16.5 -2q11 -1 19 -6.5t13 -13.5q7 -9 2 -18.5t-17 -11.5h-24q-28 1 -56 -1.5t-56 -2.5q-10 -1 -18.5 -0.5t-18.5 0.5q-21 1 -41.5 -0.5t-41.5 2.5q-18 3 -20 25q0 16 18 19z" />
    <glyph glyph-name="bullet" unicode="&#x2022;" horiz-adv-x="185" 
d="M49 317q4 37 43 51q22 6 32 -14q2 -2 2 -3t2 -2q14 -7 16 -21t-3 -28t-20 -24t-30 -9q-20 0 -32.5 15t-9.5 35z" />
    <glyph glyph-name="periodcentered" unicode="&#xb7;" horiz-adv-x="141" 
d="M49 318q0 12 6 20.5t17 9.5q9 1 18 -5.5t11 -17.5t-2 -18t-11 -14t-15 -7q-12 0 -18 11t-6 21z" />
    <glyph glyph-name="ellipsis" unicode="&#x2026;" horiz-adv-x="434" 
d="M63 34q0 6 3 13.5t8 14t12 10.5t15 3q17 0 28 -11t11 -27q0 -17 -11 -29t-27 -12t-28 11.5t-11 26.5zM301 58q8 9 18 9q6 0 15 -1.5t17.5 -5t14 -9t5.5 -14.5q0 -17 -7 -28t-18 -14t-25.5 2.5t-21.5 16.5q-7 10 -6.5 22.5t8.5 21.5zM221 72q15 0 25.5 -9t10.5 -23
t-11 -26t-25 -13q-14 0 -26 12t-12 26q-1 14 10 23t28 10z" />
    <glyph glyph-name="quoteleft" unicode="&#x2018;" horiz-adv-x="158" 
d="M38 616q4 20 12.5 38.5t26.5 32.5q6 4 12.5 6t13.5 -2q13 -5 11 -17q0 -12 -12 -15q-8 -2 -10 -5q-5 -8 -5.5 -9.5t7.5 -6.5q12 -7 16 -18t-3 -23q-13 -24 -34 -24q-17 0 -25.5 14t-9.5 29z" />
    <glyph glyph-name="quoteright" unicode="&#x2019;" horiz-adv-x="157" 
d="M123 652q-3 -20 -11.5 -38.5t-26.5 -32.5q-6 -5 -12.5 -7t-13.5 2q-12 7 -12 17q2 12 13 15q7 2 10 6q5 7 5.5 8.5t-7.5 6.5q-11 7 -15 18t2 23q12 23 34 23q17 0 25.5 -12.5t8.5 -28.5z" />
    <glyph glyph-name="quotedblleft" unicode="&#x201c;" horiz-adv-x="278" 
d="M96 687q11 10 26 4q12 -5 11 -17q-2 -13 -13 -14q-3 -2 -5.5 -3t-4.5 -3q-7 -7 -6 -8.5t9 -6.5q12 -7 15 -18.5t-3 -23.5q-5 -11 -14.5 -17t-19.5 -6q-18 0 -25.5 13t-8.5 29q3 20 11.5 38.5t27.5 32.5zM184 687q11 10 26 4q12 -5 11 -17q-2 -13 -13 -14q-2 -2 -5 -3
t-5 -3q-7 -7 -6.5 -9t8.5 -6q13 -7 16.5 -18.5t-3.5 -23.5q-12 -23 -34 -23q-18 0 -25.5 13.5t-8.5 28.5q3 20 12 38.5t27 32.5z" />
    <glyph glyph-name="quotedblright" unicode="&#x201d;" horiz-adv-x="280" 
d="M154 670q12 23 34 23q13 0 21 -7q7 -7 9.5 -15t3.5 -19q-3 -20 -12 -38.5t-27 -32.5q-13 -9 -26 -5q-13 5 -11 17q1 11 13 15q7 2 9 6q7 6 6.5 8t-8.5 7q-12 7 -15.5 18t3.5 23zM58 593q0 12 12 15q7 2 11 6q6 6 6 8.5t-8 6.5q-13 7 -16.5 18t3.5 23q14 24 34 24
q17 0 25 -13.5t8 -28.5q-3 -20 -12 -38t-26 -33q-12 -10 -26 -5q-12 5 -11 17z" />
    <glyph glyph-name="quotesinglbase" unicode="&#x201a;" horiz-adv-x="158" 
d="M123 24q-3 -20 -11.5 -38.5t-26.5 -32.5q-6 -5 -12.5 -6.5t-13.5 2.5q-12 4 -12 17q2 13 13 14q3 2 5.5 3t4.5 3q7 7 6.5 9t-8.5 6q-12 6 -15.5 18t2.5 24q12 23 34 23q17 0 25.5 -13t8.5 -29z" />
    <glyph glyph-name="quotedblbase" unicode="&#x201e;" horiz-adv-x="280" 
d="M134 24q-3 -20 -11.5 -38.5t-27.5 -32.5q-5 -4 -11.5 -6.5t-14.5 1.5q-12 5 -11 17q2 14 13 15q5 1 10 6q6 7 5.5 8.5t-8.5 6.5q-12 7 -15.5 18t4.5 24q11 23 32 23q18 0 26 -13t9 -29zM222 24q-3 -20 -11.5 -38.5t-27.5 -32.5q-5 -4 -11.5 -6.5t-14.5 1.5q-11 5 -11 17
q2 14 13 15q5 1 10 6q7 7 6.5 8.5t-8.5 6.5q-13 7 -16.5 18t3.5 24q12 23 34 23q17 0 25 -13.5t9 -28.5z" />
    <glyph glyph-name="quotesingle" unicode="'" horiz-adv-x="158" 
d="M38 616q4 20 12.5 38.5t26.5 32.5q6 4 12.5 6t13.5 -2q12 -5 11 -17q0 -12 -12 -15q-4 -1 -10 -5q-8 -5 -7 -8t9 -8q26 -15 13 -41q-13 -24 -34 -24q-17 0 -25.5 14t-9.5 29z" />
    <glyph glyph-name="quotedbl" unicode="&#x22;" horiz-adv-x="278" 
d="M184 687q11 10 26 4q12 -5 11 -17q-2 -13 -13 -14q-2 -2 -5 -3t-5 -3q-7 -7 -6.5 -9t8.5 -6q13 -7 16.5 -18.5t-3.5 -23.5q-12 -23 -34 -23q-18 0 -25.5 13.5t-8.5 28.5q3 20 12 38.5t27 32.5zM57 616q3 20 12.5 38t26.5 33q11 10 26 4q12 -5 11 -17q-2 -13 -13 -14
q-3 -2 -5.5 -3t-4.5 -3q-7 -7 -6.5 -9t9.5 -6q12 -7 15.5 -18.5t-3.5 -23.5q-12 -23 -34 -23q-18 0 -25.5 13.5t-8.5 28.5z" />
    <glyph glyph-name="less" unicode="&#x3c;" horiz-adv-x="282" 
d="M211 438q17 -2 23.5 -14.5t-1.5 -29.5q-6 -13 -23 -34.5t-37 -44t-38.5 -42.5t-28.5 -30q-6 -6 -1 -13q29 -36 59.5 -69.5t62.5 -65.5q6 -6 9 -10q12 -16 11.5 -29.5t-13.5 -29.5q-6 -7 -15 -7q-12 0 -21 10q-13 14 -25 27t-24 27l-60 64l-60 64q-10 11 -10 18.5t9 18.5
q40 47 81 92t83 91q7 7 19 7z" />
    <glyph glyph-name="greater" unicode="&#x3e;" horiz-adv-x="285" 
d="M79 17q-18 2 -24.5 14.5t1.5 30.5q6 13 15 23.5t18 21.5q23 28 46.5 54t48.5 52q5 6 0 13q-30 34 -59.5 68t-61.5 66q-7 7 -9 10q-11 17 -11.5 30.5t12.5 28.5q6 7 15 7q12 0 21 -10q12 -14 24.5 -26.5t25.5 -26.5q30 -32 59.5 -64.5t59.5 -64.5q10 -11 10 -18.5
t-9 -18.5q-40 -46 -81.5 -91t-82.5 -92q-10 -8 -18 -7z" />
    <glyph glyph-name="guillemotleft" unicode="&#xab;" horiz-adv-x="470" 
d="M194 372l165 183q7 9 18 7q18 -1 24 -14t-2 -30q-6 -12 -23 -33.5t-37 -44.5t-39 -43.5t-28 -29.5q-6 -6 0 -13q32 -32 60.5 -67.5t60.5 -67.5q6 -6 9 -10q12 -17 11.5 -30t-12.5 -29q-6 -7 -16 -7q-12 0 -21 10q-13 14 -25 27t-24 27q-30 32 -60.5 63t-59.5 65
q-9 11 -9.5 18.5t8.5 18.5zM37 372l165 183q7 7 18 7q17 -1 24.5 -14t-1.5 -30q-9 -16 -25 -37t-35 -42t-37.5 -40.5t-30.5 -31.5q-6 -6 0 -13q32 -32 60.5 -67.5t60.5 -67.5l4.5 -4.5t4.5 -5.5q14 -15 12.5 -29t-13.5 -30q-6 -7 -16 -7q-12 0 -21 10q-12 14 -24.5 27
t-24.5 27q-30 32 -59.5 64t-59.5 64q-10 11 -10.5 18.5t8.5 18.5z" />
    <glyph glyph-name="guillemotright" unicode="&#xbb;" horiz-adv-x="470" 
d="M70 555q6 7 15 7q11 0 21 -10q13 -13 25 -26t25 -27q30 -32 60 -63.5t59 -65.5q9 -11 9.5 -18.5t-8.5 -18.5q-40 -47 -80 -92.5t-85 -90.5q-8 -8 -18 -7q-17 2 -23.5 14.5t1.5 30.5q6 12 23 33.5t37 44.5t39 43.5t28 29.5q6 6 0 13q-31 38 -63 73.5t-67 70.5
q-15 15 -12.5 29.5t14.5 29.5zM227 555q6 7 14 7q11 0 21 -10q13 -13 25 -26t25 -27l120 -129q10 -11 9.5 -18.5t-9.5 -18.5q-40 -46 -79.5 -92t-84.5 -91q-8 -8 -18 -7q-17 2 -24.5 15t1.5 30q7 13 16 23.5t18 21.5q22 28 44.5 54t48.5 52q6 6 1 13q-29 34 -59 68t-62 66
q-2 2 -4.5 5t-5.5 5q-13 16 -11 30t14 29z" />
    <glyph glyph-name="slash" unicode="/" horiz-adv-x="353" 
d="M7 -5q14 41 29.5 80t31.5 78q42 95 82 188t78 189q9 23 15 45q5 13 10.5 15.5t18.5 0.5q9 0 17.5 -3.5t19.5 0.5q8 3 15 -3.5t8 -17.5q1 -8 -1 -15.5t-5 -15.5q-14 -33 -27 -65.5t-30 -64.5q-33 -69 -62 -139.5t-56 -143.5q-13 -34 -26.5 -68t-27.5 -68q-14 -32 -48 -32
q-5 1 -11 1t-11 2q-29 8 -20 37z" />
    <glyph glyph-name="backslash" unicode="\" horiz-adv-x="345" 
d="M33 592q5 4 9 7.5t9 5.5q9 6 17 6q14 0 23 -18q18 -38 35 -76.5t33 -78.5q38 -96 78.5 -189.5t75.5 -190.5q4 -11 10 -21t11 -21q6 -12 3.5 -18t-12.5 -14q-7 -6 -15 -10t-13 -13q-4 -8 -14 -8q-14 0 -22 10.5t-13 21.5q-16 32 -28 65t-25 67q-25 73 -54.5 143.5
t-60.5 140.5q-15 34 -29.5 67.5t-28.5 67.5q-13 32 11 56z" />
    <glyph glyph-name="question" unicode="?" horiz-adv-x="420" 
d="M32 485q5 39 24.5 72.5t48.5 58t65.5 38t75.5 13.5q24 0 46 -7t39 -27q46 -55 56 -125q7 -50 -19 -98q-14 -26 -31 -51.5t-41 -45.5q-16 -14 -28.5 -36t-12.5 -44q0 -9 -0.5 -18t-3.5 -17q-6 -18 -25 -16q-5 0 -10.5 0.5t-10.5 0.5q-8 1 -15.5 0t-15.5 1q-20 6 -21 23
q-6 75 35 134q13 17 26.5 32t26.5 30q31 37 38 77.5t-2 85.5q-5 19 -17.5 30.5t-29.5 19.5q-10 5 -26.5 -1.5t-24.5 -17.5q-17 -27 -20 -60q-2 -28 -0.5 -55t13.5 -53q6 -16 2.5 -25t-18.5 -17q-8 -4 -14 -8.5t-13 -9.5q-17 -14 -34 -14q-23 0 -39 25q-31 48 -24 105z
M176 160q14 9 27 9q11 0 21 -7q2 0 2.5 -0.5t1.5 -0.5q23 -8 33.5 -24.5t9.5 -45.5q0 -27 -17.5 -47.5t-46.5 -20.5q-15 0 -29 6.5t-23 20.5q-8 12 -10 27.5t1 31t10.5 29t19.5 22.5z" />
    <glyph glyph-name="exclam" unicode="!" horiz-adv-x="242" 
d="M48 657q5 4 11 7t12 3q7 0 12 -4q9 -7 19.5 -7t20.5 -2q17 -2 32 -2.5t30 6.5q8 2 14.5 -1t8.5 -11q2 -5 1.5 -9.5t-0.5 -9.5q-4 -43 -9 -86l-10 -86q-8 -66 -16 -131t-9 -131q0 -16 -8.5 -22.5t-20.5 -3.5q-6 2 -12 1.5t-12 -1.5q-20 -2 -28.5 4.5t-10.5 26.5
q-8 67 -7.5 133t0.5 133q-1 43 -5.5 84.5t-17.5 83.5q-2 7 -2 13.5t7 11.5zM90 143q10 7 18 7q4 0 14 -3.5t13 -6.5q42 -20 32 -64q-3 -15 -10 -27q-8 -14 -18.5 -23.5t-26.5 -7.5q-29 3 -40 18t-14 41q2 20 9 36.5t23 29.5z" />
    <glyph glyph-name="questiondown" unicode="&#xbf;" horiz-adv-x="420" 
d="M51 280q14 27 31.5 52.5t40.5 45.5q16 14 28 36.5t12 43.5q0 8 0.5 17t3.5 16.5t9 13t16 5.5q6 -1 11.5 -1.5t10.5 -0.5q8 -1 15.5 0t15.5 -1q20 -5 21 -23q6 -76 -36 -134q-12 -17 -25.5 -31.5t-27.5 -31.5q-30 -35 -37 -76t2 -86q4 -18 17 -31t30 -20q10 -4 26 3t24 18
q19 25 21 59q2 28 0.5 55t-12.5 53q-7 16 -3.5 25t18.5 17q8 4 14 8.5t12 9.5q19 14 34 14q24 0 40 -25q16 -23 22.5 -49.5t1.5 -55.5q-6 -39 -25 -72t-47 -57t-63.5 -38t-74.5 -14q-25 0 -48.5 6.5t-40.5 26.5q-23 27 -37.5 58.5t-18.5 66.5q-6 53 19 97zM212 668
q14 0 28 -6.5t23 -20.5q8 -12 10 -27.5t-1 -30.5t-10.5 -28.5t-19.5 -22.5q-15 -10 -27 -10q-11 0 -21 7l-1 1q-1 0 -1 0.5t-1 0.5q-23 8 -33.5 24t-10.5 45q2 26 19 47t46 21z" />
    <glyph glyph-name="exclamdown" unicode="&#xa1;" horiz-adv-x="239" 
d="M33 70q5 43 9.5 86t9.5 86q8 66 16.5 131t8.5 131q1 16 9 22t20 3q6 -1 12 -0.5t12 1.5q21 2 29.5 -5t10.5 -27q8 -66 7.5 -132.5t-0.5 -132.5q0 -43 4 -84.5t18 -83.5q5 -16 -5 -25q-5 -5 -10 -8t-11 -3q-5 0 -13 5q-9 6 -20 6.5t-21 2.5q-16 2 -31.5 2t-30.5 -6
q-8 -3 -14 0.5t-8 11.5q-2 5 -2 9.5v9.5zM76 621q3 13 10 27t18 23t28 8q23 -1 37.5 -18.5t14.5 -39.5q-1 -9 -4.5 -22t-10.5 -25t-16 -20t-21 -8q-9 0 -21 9q-1 1 -1.5 1t-1.5 1q-42 21 -32 64z" />
    <glyph glyph-name="parenleft" unicode="(" horiz-adv-x="243" 
d="M85 365q17 23 39 40t50 22q14 3 21 -12q2 -5 4 -9.5t2 -9.5q-1 -13 -13 -21q-25 -17 -45 -39.5t-29 -51.5q-17 -49 -14.5 -96t36.5 -90q9 -11 19.5 -20t24.5 -14q11 -4 22 -12q20 -15 14 -39t-32 -16q-59 19 -90.5 61.5t-47.5 99.5q-32 112 39 207z" />
    <glyph glyph-name="parenright" unicode=")" horiz-adv-x="242" 
d="M26 423q6 24 32 15q59 -20 90.5 -61.5t47.5 -98.5q31 -111 -39 -208q-6 -8 -16.5 -18t-23 -19.5t-25 -16.5t-23.5 -8q-16 -1 -23 12q-2 5 -3.5 10t-1.5 10q0 11 13 21q25 19 44.5 40.5t30.5 50.5q16 49 14 96t-36 90q-9 11 -20.5 19t-23.5 14q-6 3 -12.5 5t-11.5 7
q-20 17 -13 40z" />
    <glyph glyph-name="bracketleft" unicode="[" horiz-adv-x="215" 
d="M123 225v-86t-3 -86q0 -8 7 -7q6 2 12.5 2h11.5q9 2 17 0q22 -5 19 -20q0 -15 -22 -15q-16 1 -31 -1t-31 -3q-2 0 -4.5 -0.5t-5.5 0.5q-19 1 -26 8t-9 25q-2 16 -2 30.5v30.5q0 69 -0.5 137.5t3.5 137.5q2 12 2 23.5t2 23.5q2 11 6 15.5t15 6.5q23 5 45.5 3t45.5 -4
q15 -2 16 -15q1 -14 -13 -19q-11 -4 -23.5 -5t-24.5 -1q-8 0 -10 -2.5t-2 -9.5q3 -43 4 -85t1 -84z" />
    <glyph glyph-name="bracketright" unicode="]" horiz-adv-x="214" 
d="M40 54q12 4 24.5 5t24.5 1q8 -1 9.5 2t1.5 10q-2 42 -2.5 84t-1.5 84q1 44 0.5 86.5t2.5 86.5q0 7 -8 7l-24 -3h-8.5t-8.5 1q-22 3 -19 20q3 15 23 15q16 -1 31 0.5t30 2.5q3 1 5.5 1h4.5q19 -2 26.5 -8.5t9.5 -25.5q2 -15 2 -30v-30q0 -69 0.5 -137.5t-4.5 -137.5
q-1 -12 -1 -24t-2 -23t-6 -15.5t-15 -6.5q-23 -5 -46 -3l-46 4q-6 0 -10.5 4t-4.5 11q-2 8 2 12.5t10 6.5z" />
    <glyph glyph-name="braceleft" unicode="{" horiz-adv-x="229" 
d="M17 211q0 14 13 17q14 4 20 13.5t10 21.5q4 16 4 32t2 33q1 11 3 24.5t6 28t10 27t14 20.5t16.5 12t19.5 2q10 -2 19.5 -2t19.5 -2q3 -1 6.5 -1.5t6.5 -1.5q12 -3 13 -15t-10 -18q-7 -4 -13.5 -5.5t-13.5 -2.5q-12 -1 -19 -9t-11 -18.5t-5.5 -22.5t-1.5 -21
q-1 -19 -2 -37t-6 -36q-2 -8 -7 -15.5t-6 -14.5q-1 -8 4.5 -14.5t7.5 -14.5q1 -8 1.5 -16.5t0.5 -16.5q0 -20 0.5 -39t0.5 -39q0 -9 6 -15.5t14 -10.5t18 -5.5t17 -1.5h5q17 0 20 -14q2 -8 -2.5 -13.5t-12.5 -7.5q-15 -3 -29.5 -3.5t-29.5 2.5q-26 5 -43 21t-23 59
q-2 11 -1.5 22t-0.5 24v42q0 9 -3 11.5t-13 3.5h-5.5t-5.5 2q-12 3 -14 15z" />
    <glyph glyph-name="braceright" unicode="}" horiz-adv-x="226" 
d="M28 428q15 3 29.5 4t28.5 -3q27 -5 44 -20.5t23 -59.5q2 -11 1.5 -21.5t0.5 -23.5v-42q0 -9 3 -12t13 -3h5.5t5.5 -2q13 -3 13 -15q0 -15 -12 -18q-14 -4 -20.5 -13t-9.5 -21q-4 -16 -4 -32.5t-2 -32.5q-1 -11 -3 -25t-5.5 -27.5t-9.5 -26t-15 -21.5q-8 -8 -16.5 -12
t-19.5 -2q-10 2 -19.5 2t-19.5 2q-8 0 -17 4t-9 14q-1 11 10 18q7 4 13.5 5t13.5 2q12 3 19 10.5t11 17.5t5 21.5t2 21.5q2 19 2.5 37.5t5.5 36.5q2 8 6.5 15t6.5 15q1 7 -5 14t-7 15l-2 16t-1 17v78q0 14 -14 22q-14 7 -23.5 8.5t-23.5 1.5q-16 2 -19 15q-3 17 15 20z" />
    <glyph glyph-name="dagger" unicode="&#x2020;" horiz-adv-x="315" 
d="M22 452q2 4 3 7.5t3 8.5q6 18 22 15q20 -4 38.5 -2.5t36.5 -1.5h7q1 16 1 30.5v30.5q-1 5 -1 10t-2 10q-7 15 5 25q3 8 9 11q6 4 17 2q4 1 8.5 1t10.5 -2q11 -5 15 -13t6 -19q2 -15 3.5 -29.5t3.5 -29.5q0 -8 0.5 -16.5t0.5 -16.5q6 -1 12 -1h12q12 0 24 -0.5t24 -3.5
q13 -3 18 -14.5t-2 -24.5q-5 -7 -11 -8.5t-14 -1.5q-15 -1 -30.5 -1h-31.5q0 -29 -3.5 -57.5t-7.5 -57.5q-5 -37 -6.5 -73t-1.5 -73q1 -15 0.5 -30t-3.5 -31q-3 -13 -13.5 -20.5t-23.5 -7.5q-24 0 -30 23q-5 27 -7.5 54t-3.5 55t1 55.5t5 55.5q3 27 6.5 54t5.5 54h-2
q-12 -1 -23.5 -3.5t-23.5 -3.5t-23 2.5t-22 5.5q-22 5 -12 32z" />
    <glyph glyph-name="asterisk" unicode="*" horiz-adv-x="219" 
d="M47 640q0 12 14 12q8 -1 19 2q-4 5 -8 10.5t-8 10.5q-10 13 0 20q9 6 19 -6l10 -12t9 -12q5 -5 9 0q5 8 11 13.5t12 12.5q11 12 20 3q9 -8 -2 -19q-4 -4 -7 -7.5t-8 -8.5h17q5 -1 9.5 -3.5t4.5 -9.5q0 -8 -4.5 -9.5t-11.5 -1.5h-16q2 -4 5 -5.5t5 -3.5q8 -5 13.5 -12
t10.5 -15q5 -11 -4 -16q-4 -4 -8.5 -2.5t-6.5 5.5q-7 11 -18 18.5t-20 16.5q-5 5 -9 0q-5 -8 -11 -16t-13 -15q-2 -2 -2.5 -3t-2.5 -3q-9 -9 -18 -2q-8 7 0 17q3 4 5.5 8t6.5 8q3 3 5.5 6t6.5 8q-7 -1 -11.5 -2t-9.5 0q-14 2 -13 13z" />
    <glyph glyph-name="ampersand" unicode="&#x26;" horiz-adv-x="364" 
d="M45 140q5 31 15.5 59.5t32.5 50.5q3 3 2 6t-2 5q-6 17 -12 33.5t-8 34.5q-1 20 5.5 39t19.5 35t30 27t36 14q23 4 41.5 -1.5t32.5 -25.5t10.5 -43t-23.5 -36q-10 -7 -21 -7t-20.5 7t-11.5 21q-1 4 -1 7.5t-1 7.5q-2 12 -13 7q-14 -6 -20 -19q-8 -14 -11.5 -28.5
t1.5 -31.5q4 -14 9 -27.5t14 -25.5q12 -17 25 -34t27 -34q4 15 8 29.5t6 28.5q0 5 -1 8.5t-8 3.5q-15 2 -17 18t13 22q37 16 82 10q21 -3 19 -25q-1 -8 -8 -13.5t-18 -4.5q-11 3 -12 -9q-3 -29 -8.5 -57t-13.5 -55q-2 -5 0 -7t4 -5q14 -19 33.5 -34.5t36.5 -32.5q5 -5 7 -8
q5 -7 5.5 -14.5t-5.5 -13.5q-5 -5 -13 -6.5t-16 3.5q-5 5 -10.5 9.5t-10.5 9.5q-11 11 -21 21.5t-21 19.5q-8 7 -12 -2q-20 -45 -72 -58q-23 -5 -41.5 1.5t-35.5 23.5q-20 20 -26 44.5t-1 51.5zM116 78q4 -10 11.5 -13t15.5 3q14 11 24 24.5t18 30.5q3 6 -1 10
q-16 16 -27 33.5t-25 34.5q-4 5 -7 -2q-8 -18 -13 -36t-4 -38q-1 -12 1.5 -24t6.5 -23z" />
    <glyph glyph-name="copyright" unicode="&#xa9;" horiz-adv-x="508" 
d="M53 290q0 42 16 78.5t43 63.5t63 43t77 16t77.5 -15t64 -41.5t44 -63t17.5 -79.5q0 -42 -16 -78.5t-43 -64t-63 -44t-77 -16.5q-42 0 -79 16t-64.5 43.5t-43.5 64t-16 77.5zM253 133q33 0 62 12t50 33.5t33 50t12 61.5t-12 61.5t-33 49.5t-48.5 33.5t-59.5 12.5
q-34 0 -63 -12t-50.5 -33t-34 -49.5t-12.5 -61.5t12 -62t33 -50t49.5 -33.5t61.5 -12.5zM183 302q5 18 12.5 35t21.5 31q8 10 20 17.5t25 7.5q15 0 25 -10q3 -2 6.5 -5t7.5 -1t8 0.5t5 -4.5q1 -7 -4 -14q-15 -18 -19 -39q-2 -5 -4 -11l-4 -12q-4 -11 -16 -6q-15 6 -10 18
q4 8 6 16t0 18q-36 -57 -26 -125q1 -10 12 -17q5 -3 9 -1.5t7 5.5q9 12 13.5 25.5t8.5 27.5q0 2 1 4.5t2 4.5q3 10 14 6q9 -3 11 -12q2 -11 -1.5 -19.5t-5.5 -17.5q-9 -26 -28 -48q-9 -10 -23.5 -13.5t-28.5 1.5q-46 16 -51 62q-2 19 -0.5 38t6.5 38z" />
    <glyph glyph-name="registered" unicode="&#xae;" horiz-adv-x="355" 
d="M52 373q0 26 10 48.5t26.5 39.5t39 27.5t47.5 10.5q27 0 50 -9.5t40.5 -26.5t27.5 -40t10 -49t-10 -48.5t-27 -40t-40 -27.5t-49 -10q-25 0 -48 9.5t-40 26.5t-27 40t-10 49zM177 274q42 0 71 28.5t29 70.5t-28.5 70.5t-70.5 29.5q-21 0 -39 -7.5t-31.5 -21t-21.5 -32
t-8 -39.5q0 -42 28.5 -70t70.5 -29zM130 434q0 4 4 4q4 -2 6 -2q8 -2 16 0t16 3q22 2 38 -7q10 -5 13 -12t0 -20q-2 -10 -7 -19t-13 -17v-3q4 -8 5.5 -15.5t4.5 -14.5q8 -18 24 -19q3 -1 3 -2t-2 -1q-8 -1 -15 -2.5t-15 0.5q-9 2 -15.5 9.5t-8.5 18.5v3.5t-1 5.5q0 3 -1 7
q-2 0 -5 -1t-5 -1q-6 -1 -7 -2.5t-1 -12.5q1 -5 1.5 -11t3.5 -13q2 -3 -1 -3h-3q-7 0 -13 1t-13 -1q-9 -2 -4 6q4 7 4 16v63q-1 8 -1 16.5t-2 16.5q0 4 -4 7q-4 0 -2 2zM164 359q3 -2 5.5 0t5.5 3q2 2 2 3q-1 1 -4 0h-3q0 3 1 4q4 7 11 6q10 0 14 10t6 18q2 9 -2 15
q-5 8 -17 11.5t-19 -0.5q-3 -1 -3 -5q2 -24 0 -49v-5q-2 -8 3 -11z" />
    <glyph glyph-name="at" unicode="@" horiz-adv-x="668" 
d="M176 510q17 17 39 30t46.5 21.5t49.5 13t49 4.5q104 0 185 -81q26 -26 40 -58t21 -68q14 -73 7 -144t-33 -141q-17 -46 -43 -68.5t-73 -32.5q-14 -3 -28 3q-23 11 -40 25t-26 44q-22 -26 -50 -39q-21 -11 -46 -11q-15 0 -30 3.5t-27.5 10.5t-22 18t-13.5 27
q-12 49 -0.5 92.5t41.5 82.5q17 23 42 32.5t52 14.5q12 2 23.5 -1t22.5 -8q7 -4 7 3q-2 14 -3.5 27.5t-7.5 27.5q-5 11 -16 17t-23 6q-21 0 -34 -13q-3 -3 -2.5 -5.5t0.5 -5.5q3 -14 -4.5 -28t-19.5 -19q-17 -8 -31 1t-17 27q-3 19 4 35q19 41 56 66t82 20q48 -7 71 -28.5
t28 -74.5q4 -37 1 -74t-3 -74q0 -29 0.5 -56.5t6.5 -54.5q3 -13 4.5 -18.5t5.5 -5.5t20 13q11 9 19.5 20.5t12.5 25.5q14 52 24 103.5t8 106.5q-6 101 -87 163q-27 20 -52 32.5t-59 12.5q-17 0 -35.5 -5t-36.5 -13.5t-34.5 -18.5t-28.5 -21q-30 -26 -46.5 -58.5t-28.5 -67.5
q-15 -45 -17.5 -90.5t0.5 -92.5q2 -28 6 -56t12 -54t22.5 -50t37.5 -43q20 -17 40 -28t46 -13q56 -4 110 20q17 8 33 14t34 8q23 2 28 -18q2 -10 -3 -22t-13 -17q-34 -18 -69 -28t-71 -10q-31 0 -64 9q-157 42 -203 199q-17 55 -18.5 113.5t12 116t41 110.5t69.5 96zM297 94
q14 0 24 14t17.5 32.5t11.5 37.5t6 29q3 17 -6 32q-10 16 -24 9l-16 -8t-14 -12q-15 -20 -22 -40.5t-9 -40.5q0 -7 1 -16.5t4.5 -17.5t10 -13.5t16.5 -5.5z" />
    <glyph glyph-name="numbersign" unicode="#" horiz-adv-x="579" 
d="M59 222q8 3 12 7q5 5 10 5.5t10 0.5q15 0 29.5 -1t29.5 0q8 2 10 7q5 14 9.5 28.5t9.5 28.5q2 7 -5 7q-17 -1 -34 -1.5t-34 0.5q-19 1 -31 11t-20 27q-6 13 2.5 26t24.5 12q29 0 57.5 1.5t57.5 1.5q10 0 14 11q7 20 13.5 40.5t11.5 42.5q2 10 0 15q-2 6 -0.5 13t5.5 13
t10 10t12 5q5 0 8 1q11 4 20.5 1.5t16.5 -9t9.5 -16t0.5 -21.5q-6 -25 -13.5 -49.5t-18.5 -47.5q-4 -8 -3 -9.5t11 -2.5q11 0 23.5 0.5t24.5 -1.5q8 -1 9 6q11 29 23 56t21 56q2 9 9.5 14t16.5 5q13 0 25 -10q15 -14 10 -37q-5 -21 -12.5 -41.5t-15.5 -40.5q-6 -10 6 -9h36
q13 0 25 1t25 -2q19 -4 22 -25q1 -5 0.5 -10.5t-1.5 -10.5q-2 -15 -10 -21t-23 -5q-25 2 -49 2.5t-49 2.5q-5 0 -8 -1.5t-5 -7.5q-6 -23 -17 -47q-2 -5 -1.5 -7.5t8.5 -2.5q20 1 40 2.5t40 0.5q38 -2 33 -39q-2 -11 -3.5 -21.5t-4.5 -21.5q-3 -16 -10.5 -22.5t-23.5 -3.5
q-28 4 -55 6t-55 4q-10 3 -13 -8q-6 -20 -14 -40.5t-14 -41.5q-2 -5 -2.5 -11t-1.5 -11q-2 -12 -10.5 -18t-20.5 -4h-1q-29 5 -37 17t0 41q5 19 11.5 37t14.5 36q5 11 -7 10h-19.5t-20.5 2q-9 1 -12 -9q-7 -23 -12.5 -47.5t-12.5 -47.5q-13 -44 -58 -36q-28 5 -20 31
q8 25 14.5 49.5t15.5 47.5q4 10 -7 9q-11 -3 -23.5 -4.5t-24.5 -3.5q-18 -2 -30.5 5.5t-14.5 21.5q-2 13 8.5 28.5t22.5 19.5zM231 239h57q7 0 8 6q4 17 11 31.5t12 30.5q2 7 -5 7q-14 -1 -27 -1.5t-27 -0.5q-6 0 -7 -5q-5 -17 -11 -34t-11 -34z" />
    <glyph glyph-name="section" unicode="&#xa7;" horiz-adv-x="270" 
d="M42 121q11 8 23 0q7 -5 14 -8.5l15 -7.5q12 -4 22 0q12 5 17 13.5t-3 22.5q-4 7 -9.5 13.5t-11.5 12.5q-14 14 -26 30t-20 34q-11 26 -4.5 56t31.5 45q7 4 2 10q-36 45 -16 101q5 15 17 27.5t27 20.5t31 11.5t31 -0.5q25 -6 36 -28t14 -45q3 -12 -3 -18t-18 -13
q-8 -5 -16 -1t-13 13q-3 5 -4.5 11.5t-4.5 12.5q-8 14 -15 14q-6 0 -16 -8q-19 -18 -11 -42q6 -19 23 -33q13 -11 24 -23.5t22 -26.5q14 -18 16 -37t-4.5 -35.5t-19.5 -28t-28 -16.5q-1 -1 -5 -1q7 -7 12.5 -13t11.5 -12q26 -26 22.5 -54.5t-32.5 -50.5q-30 -22 -60 -22
q-12 0 -25 3.5t-24.5 10.5t-19.5 17t-11 22q-3 14 9 23zM124 246q8 -5 15.5 -7t16.5 3q8 4 11.5 11t5.5 15t-2 12t-8 9q-12 16 -26 5q-10 -7 -18 -18t-7 -16.5t12 -13.5z" />
    <glyph glyph-name="plus" unicode="+" horiz-adv-x="305" 
d="M15 226q1 5 2.5 8.5t3.5 8.5q6 18 21 15q20 -4 39 -3t37 -1q11 -1 11 9q-1 18 -1 35.5t-2 34.5q-1 6 -1 12.5t2 12.5q3 9 10 13q6 3 13 2.5t13.5 -3.5t12 -8.5t6.5 -11.5q2 -12 2.5 -23t-1.5 -22q-2 -12 -1.5 -24t0.5 -25q0 -7 7 -7q9 -2 18 -2h19q11 0 23.5 -1t23.5 -3
q14 -3 19 -14.5t-3 -24.5q-4 -7 -10.5 -8.5t-13.5 -2.5h-71q-10 0 -10 -9q0 -29 -1.5 -56.5t-0.5 -55.5q0 -28 -22 -30q-12 -1 -22 7.5t-10 21.5q-1 15 -1 29.5v29.5h1v55q0 9 -9 8q-12 0 -24 -2.5t-23 -3.5q-12 -1 -23 2.5t-22 5.5q-21 5 -12 31z" />
    <glyph glyph-name="multiply" unicode="&#xd7;" horiz-adv-x="360" 
d="M57 190q11 18 22.5 35t24.5 34q10 13 21 24.5t19 24.5q4 6 0 12q-18 31 -36 62.5t-40 60.5q-17 23 12 38q11 5 18 2.5t15 -16.5q8 -13 17 -25t17 -25q8 -12 17.5 -23.5t16.5 -24.5q2 -5 4.5 -5.5t7.5 4.5q22 26 40 53t37 55q9 13 28 5q11 -5 9 -19q-1 -10 -12.5 -29
t-26.5 -39.5t-29.5 -37.5t-21.5 -24q-6 -6 -1 -14q22 -33 44 -65t43 -65q5 -8 3 -15.5t-10 -11.5q-13 -6 -21 -6t-23 15t-30 34t-28 37.5t-17 25.5q-4 4 -5 7q-20 -23 -36 -47t-33 -49q-9 -14 -22 -18q-16 -5 -24 6q-4 5 -3.5 12t3.5 12z" />
    <glyph glyph-name="equal" unicode="=" horiz-adv-x="379" 
d="M214 226q18 2 36 2.5t36 1.5q14 0 23.5 -15t3.5 -28q-5 -14 -21 -14q-15 -1 -30.5 -1.5t-29.5 -2.5q-22 -2 -44 -5.5t-43 -5.5q-32 -3 -62 0q-12 2 -17 6.5t-9 15.5v3q-7 19 -1 27t26 10q8 2 17 1t17 -1q25 2 49.5 3t48.5 3zM74 254q-10 1 -15 6t-7 13q0 17 18 23
q13 3 25.5 3t25.5 2q33 4 65.5 4.5t65.5 2.5q25 2 45 -5q16 -5 16 -21q-2 -8 -7 -13.5t-13 -5.5q-33 -2 -66 -5.5t-66 -4.5h-33q-14 1 -27.5 1h-26.5z" />
    <glyph glyph-name="underscore" unicode="_" horiz-adv-x="414" 
d="M77 46q13 4 26.5 5.5t26.5 1.5q39 -1 78 2t77 1h16.5t16.5 -1q11 -1 19 -7t14 -14q7 -9 2 -18t-18 -11q-6 -1 -12 -1h-12q-28 2 -56 -0.5t-56 -3.5h-36q-21 1 -42 0.5t-41 2.5q-19 1 -21 24q0 16 18 19z" />
    <glyph glyph-name="bar" unicode="|" horiz-adv-x="193" 
d="M45 238q7 57 13 113.5t4 114.5q0 5 -0.5 10.5t-2.5 10.5q-6 15 6 26q20 17 44 11q11 -4 15.5 -13t6.5 -19q2 -15 2.5 -30t2.5 -30q2 -18 3 -36t0 -37q2 -32 -2 -64.5t-9 -65.5q-5 -36 -7 -72t0 -73q0 -16 -0.5 -31t-4.5 -30q-2 -13 -13 -21.5t-23 -8.5q-11 0 -19.5 7
t-10.5 18q-4 27 -7 54t-4 55t1 55t5 56z" />
    <glyph glyph-name="grave" unicode="`" horiz-adv-x="151" 
d="M27 531q-1 7 4 14q13 17 23 36t22 36q6 8 14 12t16 6q13 3 21 -6q8 -10 2 -22q-2 -6 -6 -10q-16 -16 -27 -34t-22 -37l-6 -9q-9 -13 -26 -10q-7 2 -11 9t-4 15z" />
    <glyph glyph-name="acute" unicode="&#xb4;" horiz-adv-x="153" 
d="M22 626q4 10 21 10q7 -2 15 -5t15 -11q14 -18 26 -37.5t23 -39.5q5 -9 2 -19t-12 -15q-8 -5 -16.5 -2t-14.5 13q-13 21 -26 41t-29 38q-11 13 -4 27z" />
    <glyph glyph-name="circumflex" unicode="&#x2c6;" horiz-adv-x="247" 
d="M206 531q0 -19 -16 -24t-25 10q-8 12 -15.5 25t-15.5 25q-5 6 -6.5 9.5t-3.5 3.5t-11 -14q-8 -11 -15 -23.5t-15 -24.5t-21 -11q-8 0 -12 4t-7 10q-5 11 1 22q11 20 23 40t26 38q13 16 30 16q18 0 30 -16q15 -18 26.5 -38t23.5 -40q3 -4 3 -12z" />
    <glyph glyph-name="cedilla" unicode="&#xb8;" horiz-adv-x="258" 
d="M238 -100q-1 -38 -27 -69.5t-67 -42.5q-16 -4 -31.5 -5.5t-32.5 3.5q-14 5 -22.5 15t-8.5 21q2 25 26 33q11 4 25 -5q2 -2 4.5 -3.5t5.5 -1.5q9 -1 19.5 3t20 10.5t16.5 15t9 17.5q5 17 -12 14q-11 -1 -22.5 -2t-22.5 -2q-58 -3 -52 53q3 26 11 50t18 48q5 11 15 15.5
t21 0.5t17 -14.5t3 -21.5q-3 -13 -7 -25t-9 -24q-5 -14 -2.5 -16.5t16.5 -0.5q5 1 11 1.5t11 0.5q67 -2 67 -68z" />
    <glyph glyph-name="dieresis" unicode="&#xa8;" horiz-adv-x="296" 
d="M197 622q8 0 15 -4q2 -2 4 -2q25 -17 21 -39q-4 -17 -15.5 -28.5t-26.5 -12.5q-14 -1 -24 10t-10 31q2 14 10.5 29.5t25.5 15.5zM70 608q8 10 23 10q23 0 33.5 -16.5t0.5 -36.5q-8 -16 -23 -23q-17 -8 -30.5 0.5t-15.5 27.5q-1 20 12 38z" />
    <glyph glyph-name="tilde" unicode="&#x2dc;" horiz-adv-x="306" 
d="M114 596q20 0 36 -12q6 -5 11.5 -8.5t12.5 -5.5q19 -8 31 9q2 3 3 5.5t3 5.5q4 8 12 10.5t16 -1.5q8 -3 11 -11t0 -16q-8 -23 -25.5 -36t-37.5 -13q-17 0 -31 7.5t-28 16.5q-9 6 -16 6q-11 0 -19 -13q-10 -16 -26 -10q-8 3 -11.5 10.5t-0.5 16.5q5 17 21.5 28t37.5 11z
" />
    <glyph glyph-name="asciicircum" unicode="^" horiz-adv-x="247" 
d="M206 531q0 -19 -16 -24t-25 10q-8 12 -15.5 25t-16.5 25q-7 12 -9 12t-8 -8.5t-12.5 -19.5t-12 -20.5t-7.5 -12.5q-8 -12 -22 -11q-12 0 -19 14q-5 12 1 22q11 20 23 40t26 38q13 16 30 16q18 0 30 -16q4 -5 13 -17.5t18 -26.5t15.5 -27t6.5 -19z" />
    </font>
</defs>
</svg>
